<svg version="1.1" id="Layer_1" xmlns="http://www.w3.org/2000/svg" xmlns:xlink="http://www.w3.org/1999/xlink" x="0px" y="0px"
	 width="100%" viewBox="0 0 900 900" enable-background="new 0 0 900 900" xml:space="preserve">
<path fill="#FFFFFE" opacity="1.000000" stroke="none" 
	d="
M901.000000,608.000000 
	C901.000000,705.649353 901.000000,803.298767 901.000000,900.974060 
	C601.070435,900.974060 301.140900,900.974060 1.105667,900.974060 
	C1.105667,601.123596 1.105667,301.247192 1.105667,1.000000 
	C98.358849,1.000000 195.718170,1.000000 293.445557,1.460929 
	C293.800354,202.554916 293.786377,403.187988 293.787445,603.821045 
	C293.787476,605.238281 293.993927,606.655457 294.115936,608.226501 
	C296.463501,608.226501 298.291260,608.226501 300.118988,608.226501 
	C498.586060,608.226501 697.053101,608.227112 895.520203,608.217102 
	C897.346802,608.217041 899.173401,608.075500 901.000000,608.000000 
M716.807373,761.594238 
	C717.415894,758.328186 715.776489,757.791321 712.879883,757.823730 
	C700.384399,757.963806 687.885986,757.828491 675.389709,757.926514 
	C672.660400,757.947937 671.227478,757.385193 672.420410,753.884888 
	C687.043640,753.884888 701.783569,753.884888 716.510498,753.884888 
	C716.510498,750.323792 716.510498,747.252563 716.510498,743.840149 
	C701.607117,743.840149 686.995911,743.840149 672.293823,743.840149 
	C672.293823,742.110413 672.293823,740.746826 672.293823,739.010071 
	C687.195312,739.010071 701.791016,739.010071 716.576050,739.010071 
	C716.576050,735.558350 716.576050,732.488708 716.576050,729.067078 
	C701.892212,729.067078 687.432129,728.865662 672.982300,729.161865 
	C666.821045,729.288147 662.244629,734.405151 661.953308,740.646118 
	C661.720459,745.634277 661.763611,750.643433 661.889404,755.638184 
	C662.071899,762.885681 666.913330,767.722656 674.197144,767.964233 
	C678.524780,768.107788 682.860840,768.001343 687.193115,768.002136 
	C696.963745,768.004089 706.734375,768.002808 716.807434,768.002808 
	C716.807434,765.789734 716.807434,764.154663 716.807373,761.594238 
M836.476501,766.289673 
	C842.077759,762.214722 843.842468,757.750427 842.034912,752.228271 
	C840.289307,746.895447 835.861328,743.938904 829.263184,743.900391 
	C818.775635,743.839172 808.287598,743.877686 797.799805,743.851013 
	C797.331970,743.849792 796.864685,743.620483 796.078247,743.413391 
	C796.181030,742.029602 796.281799,740.672119 796.406372,738.994690 
	C811.388916,738.994690 825.973633,738.994690 840.725403,738.994690 
	C840.725403,735.566895 840.725403,732.493530 840.725403,728.997253 
	C827.081970,728.997253 813.640259,728.972229 800.198730,729.006165 
	C791.462402,729.028259 785.968872,733.907837 785.975586,741.530762 
	C785.982239,749.145203 791.470154,753.969543 800.248352,753.995300 
	C810.881958,754.026550 821.515686,754.002747 832.121704,754.002747 
	C833.447937,758.122253 830.926086,757.895691 828.508484,757.892334 
	C815.073303,757.873901 801.638062,757.883484 788.028748,757.883484 
	C788.028748,761.422424 788.028748,764.498840 788.028748,767.896790 
	C802.814331,767.896790 817.420410,767.925293 832.025879,767.846924 
	C833.297302,767.840088 834.564941,767.129822 836.476501,766.289673 
M347.797791,730.850708 
	C351.241028,740.898926 354.612701,750.972534 358.153992,760.986023 
	C360.318359,767.106079 365.516815,770.145935 370.875946,768.639038 
	C374.914825,767.503479 377.190216,764.680115 378.475037,760.761658 
	C380.881989,753.420654 383.455963,746.134338 386.290985,737.860657 
	C389.053741,745.905762 391.418640,752.813049 393.798157,759.715332 
	C395.979736,766.043457 399.129547,768.869446 404.075806,768.966797 
	C409.160889,769.066956 412.645905,766.094543 414.881378,759.664001 
	C416.680145,754.489746 418.409607,749.291321 420.189270,744.110291 
	C421.874908,739.202942 423.585815,734.304321 425.363068,729.178528 
	C421.316528,729.178528 418.021118,729.178528 414.575439,729.178528 
	C411.257629,738.889160 407.980896,748.479431 404.256226,759.380859 
	C401.387634,750.887695 399.013885,743.688232 396.520172,736.530640 
	C394.526794,730.809204 390.983124,727.980408 386.175690,728.032837 
	C381.360413,728.085327 377.951172,730.955261 375.963440,736.735413 
	C373.520966,743.837891 371.129791,750.958069 368.280609,759.355103 
	C364.516235,748.415710 361.191132,738.752869 357.667755,728.513916 
	C354.200836,729.053406 350.851959,729.574585 347.797791,730.850708 
M154.429184,153.048492 
	C158.854935,151.071793 161.203583,147.652420 160.888748,142.817032 
	C160.555435,137.697769 157.291794,134.830536 152.649414,133.276993 
	C145.268539,130.807022 137.892990,128.321060 129.572052,125.524933 
	C137.566696,122.787704 144.466965,120.407127 151.379547,118.062843 
	C160.609985,114.932495 160.614090,114.944588 159.680267,104.509453 
	C149.406189,108.043159 139.230820,111.519066 129.072998,115.045517 
	C122.910210,117.185043 120.016342,120.591309 120.018425,125.538048 
	C120.020515,130.503571 122.947929,133.899246 129.084549,136.002808 
	C136.073715,138.398605 143.070496,140.772217 151.220993,143.549774 
	C142.661133,146.443298 135.287186,148.921371 127.923759,151.430328 
	C123.232597,153.028748 120.307640,156.135361 120.054100,161.245682 
	C119.820877,165.946503 122.608734,169.703491 127.868813,171.601456 
	C135.519470,174.361984 143.227127,176.965485 150.924118,179.596054 
	C153.812454,180.583176 156.738937,181.458694 160.009888,182.500320 
	C160.009888,180.861389 159.858612,179.841614 160.035034,178.882080 
	C161.007690,173.591812 159.055389,170.969009 153.614746,169.563599 
	C145.769730,167.537109 138.202042,164.437042 129.673050,161.505341 
	C138.336380,158.546997 146.026352,155.921021 154.429184,153.048492 
M147.183609,508.129608 
	C148.079468,509.287781 149.719666,510.425751 149.751663,511.607330 
	C149.976974,519.927429 149.871353,528.256470 149.871429,536.582642 
	C149.871460,541.998718 149.871429,547.414795 149.871429,552.701294 
	C153.623184,552.701294 156.704391,552.701294 159.977936,552.701294 
	C159.977936,538.284668 160.122177,524.150574 159.915756,510.021667 
	C159.815826,503.183044 154.667969,498.344238 147.680740,498.061646 
	C142.859512,497.866669 138.019348,497.880829 133.196381,498.050262 
	C126.268761,498.293640 121.211472,503.172760 121.072510,510.088379 
	C120.865143,520.408447 120.871384,530.738831 121.079857,541.058899 
	C121.206429,547.324707 125.823563,552.320862 131.858673,552.831238 
	C136.115936,553.191284 140.428192,552.900940 144.879028,552.900940 
	C144.879028,543.683105 144.879028,534.788635 144.879028,525.700073 
	C141.551895,525.700073 138.463318,525.700073 134.930359,525.700073 
	C134.930359,531.518860 134.930359,537.111267 134.930359,543.911438 
	C133.090683,542.561768 131.277679,541.860107 131.265503,541.128418 
	C131.083679,530.214294 131.139816,519.296204 131.139816,508.128632 
	C136.615158,508.128632 141.425674,508.128632 147.183609,508.129608 
M776.767761,752.571350 
	C780.977173,747.239990 780.783813,741.404297 778.127075,735.664795 
	C775.551636,730.101013 770.486816,728.819946 764.761536,728.962585 
	C758.601746,729.116089 752.435059,728.997253 746.271423,728.997253 
	C739.171448,728.997253 732.071411,728.997192 725.169312,728.997192 
	C725.169312,742.356384 725.169312,755.091003 725.169312,767.722412 
	C728.584473,767.722412 731.670471,767.722412 735.140930,767.722412 
	C735.140930,764.371399 735.140930,761.295105 735.140930,758.240784 
	C746.809204,758.240784 758.072937,758.240784 769.728638,758.240784 
	C769.728638,761.582153 769.728638,764.684021 769.728638,767.750977 
	C773.231995,767.750977 776.337036,767.750977 781.034485,767.750977 
	C779.524841,762.531250 778.199219,757.947815 776.767761,752.571350 
M148.571472,444.816498 
	C148.288712,445.795380 148.306320,447.070160 147.677643,447.708282 
	C139.622406,455.885132 131.456970,463.953217 123.359978,472.089203 
	C120.457275,475.005920 119.207977,478.500793 120.447739,482.562836 
	C121.674652,486.582855 124.518028,489.530518 128.587021,489.679138 
	C138.983109,490.058807 149.402298,489.805695 159.758759,489.805695 
	C159.758759,486.250854 159.758759,483.156555 159.758759,479.629150 
	C150.161301,479.629150 140.807251,479.629150 130.692886,479.629150 
	C132.249191,477.935059 133.197281,476.833069 134.218018,475.803040 
	C142.063797,467.885712 149.964096,460.021942 157.757935,452.053925 
	C160.608154,449.139984 161.870636,445.645813 160.417709,441.561920 
	C159.009354,437.603302 156.274734,434.884216 152.052795,434.790466 
	C141.785217,434.562500 131.509155,434.716248 121.204025,434.716248 
	C121.204025,438.130341 121.204025,441.239288 121.204025,444.800812 
	C130.182388,444.800812 138.955994,444.800812 148.571472,444.816498 
M121.000549,347.325806 
	C123.890068,351.327942 127.610748,348.179901 131.310272,349.092560 
	C131.310272,333.906525 131.310272,319.329865 131.310272,304.695557 
	C137.612991,304.695557 143.532425,304.695557 150.014862,304.695557 
	C150.014862,319.661072 150.014862,334.360107 150.014862,348.822998 
	C153.665497,348.822998 156.744934,348.822998 159.991379,348.822998 
	C159.991379,334.548187 160.108582,320.589264 159.942749,306.633698 
	C159.857727,299.478485 154.935837,294.668243 147.583542,294.247284 
	C143.437302,294.009888 139.266464,294.130493 135.108154,294.190399 
	C125.801491,294.324432 121.034111,299.123627 121.006668,308.420959 
	C120.969345,321.065643 120.997368,333.710571 121.000549,347.325806 
M556.555542,739.125610 
	C568.296692,739.125610 580.037781,739.125610 591.722839,739.125610 
	C591.722839,735.424561 591.722839,732.346741 591.722839,729.046326 
	C577.179077,729.046326 562.893066,728.886414 548.613525,729.120789 
	C542.434998,729.222229 537.537537,734.079224 537.147949,740.199524 
	C536.799805,745.668335 536.834839,751.189148 537.130676,756.663757 
	C537.440735,762.399475 541.870117,767.594849 547.471619,767.739075 
	C562.212463,768.118408 576.969482,767.867249 591.754639,767.867249 
	C591.754639,764.391724 591.754639,761.310791 591.754639,757.735352 
	C576.825623,757.735352 562.119080,757.735352 547.410400,757.735352 
	C547.410400,751.322571 547.410400,745.416626 547.410400,739.125610 
	C550.312744,739.125610 552.943787,739.125610 556.555542,739.125610 
M157.487640,203.100449 
	C145.514221,194.089706 133.540787,185.078949 120.991905,175.635132 
	C120.991905,178.033737 121.138817,179.381577 120.966194,180.687164 
	C120.261147,186.019623 121.277992,190.337372 126.703018,192.951996 
	C127.862099,193.510620 128.734909,195.829163 128.770477,197.359451 
	C128.967407,205.837479 128.695618,214.327560 128.950897,222.802475 
	C129.048553,226.044998 128.013504,227.991241 125.355370,229.731796 
	C123.606567,230.876923 121.564041,232.714432 121.183693,234.557739 
	C120.507782,237.833496 120.993866,241.348999 120.993866,245.729507 
	C133.527603,236.306992 145.436676,227.649841 156.986893,218.537796 
	C162.234634,214.397812 162.177673,209.695312 157.487640,203.100449 
M443.666931,734.164856 
	C435.401398,745.268372 427.135895,756.371948 418.473938,768.007996 
	C420.792908,768.007996 422.140533,767.858093 423.444122,768.034180 
	C428.784973,768.755432 433.041595,767.677185 435.708710,762.297058 
	C436.320129,761.063660 438.932556,760.272644 440.648041,760.229492 
	C448.963165,760.020264 457.292572,760.318787 465.603882,760.043640 
	C468.873474,759.935364 470.755035,761.025391 472.480957,763.673767 
	C473.619507,765.420898 475.480743,767.440979 477.328827,767.818237 
	C480.615906,768.489258 484.138458,768.006775 488.396973,768.006775 
	C479.692871,756.325378 471.527985,745.291565 463.278534,734.321350 
	C457.044556,726.031372 451.122833,725.841125 443.666931,734.164856 
M598.843323,739.516907 
	C598.843323,748.938660 598.843323,758.360413 598.843323,767.750183 
	C602.524536,767.750183 605.607117,767.750183 609.085938,767.750183 
	C609.085938,763.096069 609.085938,758.680786 609.085938,754.221313 
	C620.760498,754.221313 632.026367,754.221313 643.664917,754.221313 
	C643.664917,758.877197 643.664917,763.320435 643.664917,767.786621 
	C647.152283,767.786621 650.263245,767.786621 653.566467,767.786621 
	C653.566467,754.837280 653.566467,742.106567 653.566467,729.185791 
	C650.215088,729.185791 647.106140,729.185791 643.470825,729.185791 
	C643.470825,734.026672 643.470825,738.771179 643.470825,743.591309 
	C631.712341,743.591309 620.481384,743.591309 608.782959,743.591309 
	C608.782959,738.571350 608.782959,733.836182 608.782959,729.289551 
	C605.210754,729.289551 602.118164,729.289551 598.843323,729.289551 
	C598.843323,732.562256 598.843323,735.543701 598.843323,739.516907 
M127.575867,356.002747 
	C125.470459,356.002747 123.365044,356.002747 121.217758,356.002747 
	C121.217758,359.603912 121.217758,362.687622 121.217758,366.187561 
	C125.826927,366.187561 130.234879,366.187561 134.644058,366.187561 
	C134.644058,377.971436 134.644058,389.329407 134.644058,401.119873 
	C129.898544,401.119873 125.507469,401.119873 121.303352,401.119873 
	C121.303352,404.645782 121.303352,407.724365 121.303352,410.701355 
	C134.334045,410.701355 147.058975,410.701355 159.755768,410.701355 
	C159.755768,407.326508 159.755768,404.239685 159.755768,400.665405 
	C154.797424,400.665405 150.075378,400.665405 145.415039,400.665405 
	C145.415039,388.932343 145.415039,377.701569 145.415039,365.970215 
	C150.421112,365.970215 155.139954,365.970215 159.718170,365.970215 
	C159.718170,362.378113 159.718170,359.297699 159.718170,356.002747 
	C149.145706,356.002747 138.853912,356.002747 127.575867,356.002747 
M208.955338,745.545105 
	C212.205902,748.838013 215.456482,752.130859 218.896393,755.615601 
	C220.865570,753.720642 222.463638,752.182739 225.239243,749.511719 
	C217.530014,741.860107 210.177872,734.562927 202.825729,727.265747 
	C203.065338,726.929565 203.304932,726.593384 203.544525,726.257202 
	C207.560349,729.293701 210.956772,733.182556 214.508530,736.784729 
	C218.344727,740.675354 221.949936,744.793640 225.630981,748.785645 
	C228.030930,746.533691 229.592773,745.068115 231.438934,743.335754 
	C224.756409,736.663818 218.215668,730.273315 211.845322,723.717163 
	C208.404419,720.175964 204.671463,718.166748 199.855637,720.511719 
	C193.772049,723.474182 187.294083,732.453857 188.124359,736.709412 
	C188.399796,738.121155 188.980927,739.728699 189.961014,740.706909 
	C197.224945,747.956970 204.624771,755.070740 212.216446,762.455505 
	C213.718689,760.877991 215.241791,759.278625 216.928741,757.507141 
	C210.057938,750.697632 203.520889,744.282043 197.085815,737.765808 
	C196.226364,736.895569 195.883286,735.515320 195.301086,734.371277 
	C195.845139,734.029785 196.389191,733.688354 196.933258,733.346863 
	C200.773895,737.246216 204.614548,741.145569 208.955338,745.545105 
M531.150085,729.124512 
	C513.264832,729.124512 495.379578,729.124512 477.617798,729.124512 
	C477.617798,732.778137 477.617798,735.845703 477.617798,739.382446 
	C485.022644,739.382446 492.093292,739.382446 499.516449,739.382446 
	C499.516449,749.128723 499.516449,758.402283 499.516449,767.666138 
	C503.115692,767.666138 506.330566,767.666138 509.902985,767.666138 
	C509.902985,758.070496 509.902985,748.819458 509.902985,739.113770 
	C517.332947,739.113770 524.406677,739.113770 531.806091,739.113770 
	C531.806091,735.707947 531.806091,732.753723 531.150085,729.124512 
M149.874313,252.271088 
	C149.777466,253.698029 149.680603,255.124985 149.563095,256.856415 
	C139.917130,256.856415 130.663376,256.856415 121.333145,256.856415 
	C121.333145,260.401550 121.333145,263.599457 121.333145,267.093506 
	C130.923477,267.093506 140.182205,267.093506 149.841751,267.093506 
	C149.841751,274.453308 149.841751,281.524841 149.841751,288.694214 
	C153.451950,288.694214 156.646317,288.694214 159.637726,288.694214 
	C159.637726,270.515076 159.637726,252.657471 159.637726,235.048157 
	C156.198090,235.048157 153.124893,235.048157 149.874329,235.048157 
	C149.874329,240.699432 149.874329,246.006561 149.874313,252.271088 
M196.282516,708.337463 
	C193.648163,710.385376 191.013809,712.433289 188.715332,714.220032 
	C183.164001,708.597290 177.581512,702.942932 171.514679,696.798035 
	C173.671295,695.031128 176.110199,693.033020 178.758652,690.863159 
	C176.708618,688.721313 175.165558,687.109070 173.800201,685.682556 
	C167.080566,692.315247 160.730667,698.583008 154.570938,704.663086 
	C156.024216,706.250305 157.532532,707.897644 159.142365,709.655823 
	C161.549103,707.359741 163.805374,705.207092 165.889435,703.218811 
	C171.683044,708.952637 177.291534,714.503174 184.125763,721.266846 
	C181.303223,723.006409 178.482773,724.744690 176.034241,726.253784 
	C178.322708,729.027588 179.685577,730.679443 180.306366,731.431946 
	C187.049713,724.749023 193.476593,718.379761 200.175995,711.740417 
	C199.333450,710.996826 198.087097,709.896851 196.282516,708.337463 
M149.297913,661.207031 
	C147.737869,659.266235 146.177811,657.325439 145.089554,655.971558 
	C142.596069,658.173828 140.924637,659.650024 138.617264,661.687927 
	C142.144073,665.072144 145.702286,668.486450 150.087341,672.694275 
	C145.073105,677.299500 140.224533,681.752625 135.777939,685.836487 
	C137.458282,688.017212 138.775406,689.726501 140.588837,692.079895 
	C145.591278,686.888855 150.159821,682.148071 155.259598,676.855957 
	C158.802887,680.720642 162.141113,684.361694 165.407394,687.924194 
	C167.579346,686.110901 169.315857,684.661133 171.226700,683.065796 
	C163.706390,675.570068 156.751190,668.637634 149.297913,661.207031 
M149.476517,419.002747 
	C140.067200,419.002747 130.657883,419.002747 121.218903,419.002747 
	C121.218903,422.610870 121.218903,425.690643 121.218903,428.944580 
	C134.144836,428.944580 146.851349,428.944580 159.692200,428.944580 
	C159.692200,425.567841 159.692200,422.375458 159.692200,419.002747 
	C156.413147,419.002747 153.439407,419.002747 149.476517,419.002747 
z"/>
<path fill="#FF9A00" opacity="1.000000" stroke="none" 
	d="
M901.000000,607.531372 
	C899.173401,608.075500 897.346802,608.217041 895.520203,608.217102 
	C697.053101,608.227112 498.586060,608.226501 300.118988,608.226501 
	C298.291260,608.226501 296.463501,608.226501 294.115936,608.226501 
	C293.993927,606.655457 293.787476,605.238281 293.787445,603.821045 
	C293.786377,403.187988 293.800354,202.554916 293.906830,1.460929 
	C496.260437,1.000000 698.520874,1.000000 901.000000,1.000000 
	C901.000000,203.020844 901.000000,405.041748 901.000000,607.531372 
M691.893005,103.610909 
	C685.809509,97.920105 679.727844,92.227272 673.642090,86.538895 
	C656.725037,70.726578 639.812622,54.909336 622.883850,39.109577 
	C618.588684,35.100834 616.102234,35.224148 611.956848,39.621452 
	C607.422607,44.431271 602.925537,49.276157 598.416016,54.109352 
	C571.479553,82.979340 544.558411,111.863647 517.605164,140.718002 
	C472.799438,188.684097 427.973877,236.631714 383.155365,284.585907 
	C375.109344,293.194824 375.147247,294.304535 383.760864,301.986572 
	C384.631042,302.762604 385.460236,303.584503 386.312439,304.380890 
	C422.218506,337.935883 458.096069,371.521454 494.038940,405.037018 
	C537.533203,445.593994 581.088623,486.085297 624.603760,526.619873 
	C634.384460,535.730591 634.471313,535.865112 643.434387,526.317505 
	C681.064453,486.233521 718.667297,446.123749 756.191467,405.940643 
	C794.508057,364.908997 832.707397,323.767853 870.996155,282.710144 
	C875.915039,277.435486 875.985962,275.052216 870.868408,270.319702 
	C862.799561,262.857819 854.733032,255.393341 846.693115,247.900269 
	C795.262756,199.968109 743.839966,152.027786 691.893005,103.610909 
M504.045166,500.423279 
	C501.933167,502.552612 499.710449,504.584625 497.734009,506.833099 
	C494.389496,510.637939 494.055634,514.991150 497.476868,518.561340 
	C504.477814,525.867310 511.833771,532.833069 519.342957,540.234009 
	C520.907166,538.548279 522.349670,536.993713 524.507385,534.668335 
	C517.003540,527.398560 509.522644,520.151001 502.041748,512.903381 
	C502.365601,512.410583 502.689453,511.917725 503.013306,511.424896 
	C504.201630,512.079468 505.617828,512.505249 506.541840,513.425293 
	C513.101257,519.956360 519.559937,526.588684 526.170837,533.310791 
	C528.226990,531.158203 529.681946,529.635071 532.175842,527.024231 
	C524.582397,519.488831 517.246033,512.208557 509.909698,504.928314 
	C515.358215,506.055908 518.069580,510.849304 521.704163,514.284546 
	C525.653442,518.017212 529.093872,522.288269 532.655273,526.213318 
	C535.260437,524.000183 536.880066,522.624268 538.845276,520.954773 
	C531.621887,513.772400 524.949219,507.054718 518.180176,500.435699 
	C513.535522,495.894043 510.007690,495.828156 504.045166,500.423279 
M462.511719,459.084259 
	C459.557953,455.976410 456.604187,452.868561 453.327484,449.420898 
	C451.330475,451.444489 449.852203,452.942413 447.017487,455.814880 
	C449.272125,457.338043 451.383667,458.450409 453.078552,460.014343 
	C454.310852,461.151428 454.992493,462.885315 455.919678,464.353088 
	C455.639252,464.429718 455.358826,464.506348 455.078400,464.582977 
	C449.431580,459.066284 443.784790,453.549591 438.229431,448.122284 
	C440.888489,445.361298 443.723572,442.417572 447.625641,438.365967 
	C454.927612,446.027069 462.091339,453.543121 469.360901,461.170227 
	C470.992584,459.409637 472.397644,457.893555 473.944458,456.224518 
	C466.741119,449.013702 459.903015,441.985229 452.849335,435.180206 
	C448.971771,431.439301 444.415466,431.612061 440.345673,435.152130 
	C431.108490,443.187103 428.931000,448.048065 432.257294,453.231323 
	C432.525574,453.649384 432.824005,454.061829 433.173492,454.411926 
	C438.343323,459.590668 443.391815,464.900787 448.749084,469.878418 
	C452.300842,473.178528 456.761414,472.952179 460.526947,469.849121 
	C462.791382,467.983032 465.010040,466.061432 468.092468,463.450592 
	C465.678864,461.624390 464.347900,460.617340 462.511719,459.084259 
M403.165802,385.769531 
	C395.189575,378.533508 387.213318,371.297485 379.832977,364.602081 
	C374.574188,369.770721 368.136414,376.098145 362.236206,381.897217 
	C363.282257,383.256439 364.570953,384.930908 365.949951,386.722717 
	C367.843933,385.089752 369.524780,383.640472 370.505463,382.794922 
	C376.441956,388.679352 381.952454,394.141510 387.545654,399.685669 
	C386.393951,400.991455 384.996399,402.575989 383.257111,404.547974 
	C384.937805,406.179932 386.456818,407.654907 388.863251,409.991547 
	C390.288086,408.094818 391.863281,406.674683 392.571167,404.907196 
	C393.838654,401.742554 395.994293,400.074097 398.920227,398.359802 
	C403.149933,395.881592 405.444092,391.755707 403.165802,385.769531 
M803.196472,87.990013 
	C800.095581,88.180756 795.831970,87.147514 794.106628,88.786385 
	C788.399902,94.207161 783.609131,100.592232 778.246277,106.865242 
	C780.550171,108.727913 782.322021,110.160378 784.337952,111.790215 
	C789.123352,106.138710 793.679443,100.757980 798.842224,94.660805 
	C799.816895,105.086433 800.365173,114.529175 801.786316,123.838646 
	C802.181152,126.425514 804.695740,129.449280 807.073547,130.784607 
	C810.198608,132.539658 813.485352,130.899979 815.861328,128.043945 
	C820.436890,122.543991 825.058167,117.082176 829.901001,111.318298 
	C827.967712,109.640450 826.151978,108.064621 824.031189,106.224037 
	C819.181458,111.936638 814.634827,117.292137 809.410217,123.446274 
	C808.524048,113.679237 807.937683,105.098969 806.863647,96.580177 
	C806.510986,93.783081 804.894226,91.145355 803.196472,87.990013 
M367.161346,349.393341 
	C360.868988,343.085327 354.576660,336.777283 349.058807,331.245697 
	C342.230713,338.087250 335.941986,344.388397 329.352875,350.990509 
	C334.122864,355.656616 339.393524,360.739899 344.583282,365.904480 
	C355.214172,376.483826 357.024750,376.510559 367.441193,366.006409 
	C373.560699,359.835388 373.614532,356.154785 367.161346,349.393341 
M478.259735,472.113739 
	C478.567749,473.620819 479.117035,475.123810 479.142487,476.635651 
	C479.260254,483.622925 478.848206,490.646454 479.458435,497.583771 
	C479.681488,500.119751 481.686096,503.451172 483.840942,504.577698 
	C485.722137,505.561157 489.696198,504.827454 491.453949,503.333069 
	C496.740173,498.838989 501.395569,493.602905 505.946014,489.010498 
	C504.307312,487.090576 502.860931,485.395966 500.703430,482.868225 
	C496.091217,487.791443 491.825592,492.344696 486.972778,497.524689 
	C486.858521,495.117157 486.733307,493.535492 486.716919,491.952728 
	C486.644653,484.965027 486.882568,477.960480 486.470490,470.993835 
	C486.083191,464.445892 479.915497,460.932648 475.355164,464.833008 
	C469.764496,469.614563 464.995148,475.356415 460.238068,480.301239 
	C461.583130,482.117615 462.842926,483.818878 464.615173,486.212158 
	C469.348633,481.198639 473.453644,476.850739 478.259735,472.113739 
M419.820892,435.475372 
	C417.685822,441.108124 421.745148,443.256012 425.588135,446.141968 
	C427.079163,436.107513 428.587585,426.628601 429.864441,417.118622 
	C430.668640,411.129303 427.933746,406.970825 422.785461,407.456238 
	C412.287598,408.446167 401.865601,410.240631 390.888672,411.776947 
	C394.171539,415.738586 396.637573,419.445587 401.979248,417.762054 
	C402.654236,417.549316 403.832703,417.738129 404.289490,418.211823 
	C409.545288,423.662506 414.706635,429.204285 419.820892,435.475372 
M544.577576,545.027893 
	C540.975708,548.182495 537.373840,551.337036 533.715942,554.540649 
	C536.183899,557.252380 537.621277,558.831665 539.954590,561.395447 
	C544.819824,556.099609 549.269714,551.255859 554.506165,545.555969 
	C558.121887,549.639954 561.381836,553.321960 564.622009,556.981689 
	C566.692932,555.144958 568.274841,553.742004 569.539612,552.620239 
	C560.271179,543.345703 551.380676,534.449402 542.780029,525.843079 
	C541.418762,527.044983 539.750977,528.517517 537.024109,530.925232 
	C540.977295,534.355896 544.698181,537.584961 548.519226,540.901062 
	C547.122070,542.369324 546.100281,543.443054 544.577576,545.027893 
M783.969116,82.447929 
	C779.266846,88.051254 774.564636,93.654579 769.598511,99.572372 
	C771.612854,101.277596 773.453186,102.835472 775.568420,104.626091 
	C782.097595,96.842072 788.356689,89.379974 794.751038,81.756683 
	C792.523132,79.875862 790.776001,78.400909 788.776123,76.712540 
	C787.171265,78.628868 785.798950,80.267563 783.969116,82.447929 
z"/>
<path fill="#020202" opacity="1.000000" stroke="none" 
	d="
M716.807373,762.056885 
	C716.807434,764.154663 716.807434,765.789734 716.807434,768.002808 
	C706.734375,768.002808 696.963745,768.004089 687.193115,768.002136 
	C682.860840,768.001343 678.524780,768.107788 674.197144,767.964233 
	C666.913330,767.722656 662.071899,762.885681 661.889404,755.638184 
	C661.763611,750.643433 661.720459,745.634277 661.953308,740.646118 
	C662.244629,734.405151 666.821045,729.288147 672.982300,729.161865 
	C687.432129,728.865662 701.892212,729.067078 716.576050,729.067078 
	C716.576050,732.488708 716.576050,735.558350 716.576050,739.010071 
	C701.791016,739.010071 687.195312,739.010071 672.293823,739.010071 
	C672.293823,740.746826 672.293823,742.110413 672.293823,743.840149 
	C686.995911,743.840149 701.607117,743.840149 716.510498,743.840149 
	C716.510498,747.252563 716.510498,750.323792 716.510498,753.884888 
	C701.783569,753.884888 687.043640,753.884888 672.420410,753.884888 
	C671.227478,757.385193 672.660400,757.947937 675.389709,757.926514 
	C687.885986,757.828491 700.384399,757.963806 712.879883,757.823730 
	C715.776489,757.791321 717.415894,758.328186 716.807373,762.056885 
z"/>
<path fill="#020202" opacity="1.000000" stroke="none" 
	d="
M836.155396,766.518005 
	C834.564941,767.129822 833.297302,767.840088 832.025879,767.846924 
	C817.420410,767.925293 802.814331,767.896790 788.028748,767.896790 
	C788.028748,764.498840 788.028748,761.422424 788.028748,757.883484 
	C801.638062,757.883484 815.073303,757.873901 828.508484,757.892334 
	C830.926086,757.895691 833.447937,758.122253 832.121704,754.002747 
	C821.515686,754.002747 810.881958,754.026550 800.248352,753.995300 
	C791.470154,753.969543 785.982239,749.145203 785.975586,741.530762 
	C785.968872,733.907837 791.462402,729.028259 800.198730,729.006165 
	C813.640259,728.972229 827.081970,728.997253 840.725403,728.997253 
	C840.725403,732.493530 840.725403,735.566895 840.725403,738.994690 
	C825.973633,738.994690 811.388916,738.994690 796.406372,738.994690 
	C796.281799,740.672119 796.181030,742.029602 796.078247,743.413391 
	C796.864685,743.620483 797.331970,743.849792 797.799805,743.851013 
	C808.287598,743.877686 818.775635,743.839172 829.263184,743.900391 
	C835.861328,743.938904 840.289307,746.895447 842.034912,752.228271 
	C843.842468,757.750427 842.077759,762.214722 836.155396,766.518005 
z"/>
<path fill="#070707" opacity="1.000000" stroke="none" 
	d="
M347.650452,730.473206 
	C350.851959,729.574585 354.200836,729.053406 357.667755,728.513916 
	C361.191132,738.752869 364.516235,748.415710 368.280609,759.355103 
	C371.129791,750.958069 373.520966,743.837891 375.963440,736.735413 
	C377.951172,730.955261 381.360413,728.085327 386.175690,728.032837 
	C390.983124,727.980408 394.526794,730.809204 396.520172,736.530640 
	C399.013885,743.688232 401.387634,750.887695 404.256226,759.380859 
	C407.980896,748.479431 411.257629,738.889160 414.575439,729.178528 
	C418.021118,729.178528 421.316528,729.178528 425.363068,729.178528 
	C423.585815,734.304321 421.874908,739.202942 420.189270,744.110291 
	C418.409607,749.291321 416.680145,754.489746 414.881378,759.664001 
	C412.645905,766.094543 409.160889,769.066956 404.075806,768.966797 
	C399.129547,768.869446 395.979736,766.043457 393.798157,759.715332 
	C391.418640,752.813049 389.053741,745.905762 386.290985,737.860657 
	C383.455963,746.134338 380.881989,753.420654 378.475037,760.761658 
	C377.190216,764.680115 374.914825,767.503479 370.875946,768.639038 
	C365.516815,770.145935 360.318359,767.106079 358.153992,760.986023 
	C354.612701,750.972534 351.241028,740.898926 347.650452,730.473206 
z"/>
<path fill="#050505" opacity="1.000000" stroke="none" 
	d="
M154.072754,153.171783 
	C146.026352,155.921021 138.336380,158.546997 129.673050,161.505341 
	C138.202042,164.437042 145.769730,167.537109 153.614746,169.563599 
	C159.055389,170.969009 161.007690,173.591812 160.035034,178.882080 
	C159.858612,179.841614 160.009888,180.861389 160.009888,182.500320 
	C156.738937,181.458694 153.812454,180.583176 150.924118,179.596054 
	C143.227127,176.965485 135.519470,174.361984 127.868813,171.601456 
	C122.608734,169.703491 119.820877,165.946503 120.054100,161.245682 
	C120.307640,156.135361 123.232597,153.028748 127.923759,151.430328 
	C135.287186,148.921371 142.661133,146.443298 151.220993,143.549774 
	C143.070496,140.772217 136.073715,138.398605 129.084549,136.002808 
	C122.947929,133.899246 120.020515,130.503571 120.018425,125.538048 
	C120.016342,120.591309 122.910210,117.185043 129.072998,115.045517 
	C139.230820,111.519066 149.406189,108.043159 159.680267,104.509453 
	C160.614090,114.944588 160.609985,114.932495 151.379547,118.062843 
	C144.466965,120.407127 137.566696,122.787704 129.572052,125.524933 
	C137.892990,128.321060 145.268539,130.807022 152.649414,133.276993 
	C157.291794,134.830536 160.555435,137.697769 160.888748,142.817032 
	C161.203583,147.652420 158.854935,151.071793 154.072754,153.171783 
z"/>
<path fill="#020202" opacity="1.000000" stroke="none" 
	d="
M146.709900,508.129120 
	C141.425674,508.128632 136.615158,508.128632 131.139816,508.128632 
	C131.139816,519.296204 131.083679,530.214294 131.265503,541.128418 
	C131.277679,541.860107 133.090683,542.561768 134.930359,543.911438 
	C134.930359,537.111267 134.930359,531.518860 134.930359,525.700073 
	C138.463318,525.700073 141.551895,525.700073 144.879028,525.700073 
	C144.879028,534.788635 144.879028,543.683105 144.879028,552.900940 
	C140.428192,552.900940 136.115936,553.191284 131.858673,552.831238 
	C125.823563,552.320862 121.206429,547.324707 121.079857,541.058899 
	C120.871384,530.738831 120.865143,520.408447 121.072510,510.088379 
	C121.211472,503.172760 126.268761,498.293640 133.196381,498.050262 
	C138.019348,497.880829 142.859512,497.866669 147.680740,498.061646 
	C154.667969,498.344238 159.815826,503.183044 159.915756,510.021667 
	C160.122177,524.150574 159.977936,538.284668 159.977936,552.701294 
	C156.704391,552.701294 153.623184,552.701294 149.871429,552.701294 
	C149.871429,547.414795 149.871460,541.998718 149.871429,536.582642 
	C149.871353,528.256470 149.976974,519.927429 149.751663,511.607330 
	C149.719666,510.425751 148.079468,509.287781 146.709900,508.129120 
z"/>
<path fill="#020202" opacity="1.000000" stroke="none" 
	d="
M776.820679,752.967834 
	C778.199219,757.947815 779.524841,762.531250 781.034485,767.750977 
	C776.337036,767.750977 773.231995,767.750977 769.728638,767.750977 
	C769.728638,764.684021 769.728638,761.582153 769.728638,758.240784 
	C758.072937,758.240784 746.809204,758.240784 735.140930,758.240784 
	C735.140930,761.295105 735.140930,764.371399 735.140930,767.722412 
	C731.670471,767.722412 728.584473,767.722412 725.169312,767.722412 
	C725.169312,755.091003 725.169312,742.356384 725.169312,728.997192 
	C732.071411,728.997192 739.171448,728.997253 746.271423,728.997253 
	C752.435059,728.997253 758.601746,729.116089 764.761536,728.962585 
	C770.486816,728.819946 775.551636,730.101013 778.127075,735.664795 
	C780.783813,741.404297 780.977173,747.239990 776.820679,752.967834 
M747.512573,739.096863 
	C743.410828,739.096863 739.309021,739.096863 735.155273,739.096863 
	C735.155273,742.268066 735.155273,744.866577 735.155273,747.688660 
	C746.583252,747.688660 757.808655,747.688660 769.262756,747.688660 
	C769.262756,744.791199 769.262756,742.076721 769.262756,739.096863 
	C762.117859,739.096863 755.313599,739.096863 747.512573,739.096863 
z"/>
<path fill="#050505" opacity="1.000000" stroke="none" 
	d="
M148.150543,444.808655 
	C138.955994,444.800812 130.182388,444.800812 121.204025,444.800812 
	C121.204025,441.239288 121.204025,438.130341 121.204025,434.716248 
	C131.509155,434.716248 141.785217,434.562500 152.052795,434.790466 
	C156.274734,434.884216 159.009354,437.603302 160.417709,441.561920 
	C161.870636,445.645813 160.608154,449.139984 157.757935,452.053925 
	C149.964096,460.021942 142.063797,467.885712 134.218018,475.803040 
	C133.197281,476.833069 132.249191,477.935059 130.692886,479.629150 
	C140.807251,479.629150 150.161301,479.629150 159.758759,479.629150 
	C159.758759,483.156555 159.758759,486.250854 159.758759,489.805695 
	C149.402298,489.805695 138.983109,490.058807 128.587021,489.679138 
	C124.518028,489.530518 121.674652,486.582855 120.447739,482.562836 
	C119.207977,478.500793 120.457275,475.005920 123.359978,472.089203 
	C131.456970,463.953217 139.622406,455.885132 147.677643,447.708282 
	C148.306320,447.070160 148.288712,445.795380 148.150543,444.808655 
z"/>
<path fill="#020202" opacity="1.000000" stroke="none" 
	d="
M120.998962,346.840576 
	C120.997368,333.710571 120.969345,321.065643 121.006668,308.420959 
	C121.034111,299.123627 125.801491,294.324432 135.108154,294.190399 
	C139.266464,294.130493 143.437302,294.009888 147.583542,294.247284 
	C154.935837,294.668243 159.857727,299.478485 159.942749,306.633698 
	C160.108582,320.589264 159.991379,334.548187 159.991379,348.822998 
	C156.744934,348.822998 153.665497,348.822998 150.014862,348.822998 
	C150.014862,334.360107 150.014862,319.661072 150.014862,304.695557 
	C143.532425,304.695557 137.612991,304.695557 131.310272,304.695557 
	C131.310272,319.329865 131.310272,333.906525 131.310272,349.092560 
	C127.610748,348.179901 123.890068,351.327942 120.998962,346.840576 
z"/>
<path fill="#010101" opacity="1.000000" stroke="none" 
	d="
M556.065186,739.125610 
	C552.943787,739.125610 550.312744,739.125610 547.410400,739.125610 
	C547.410400,745.416626 547.410400,751.322571 547.410400,757.735352 
	C562.119080,757.735352 576.825623,757.735352 591.754639,757.735352 
	C591.754639,761.310791 591.754639,764.391724 591.754639,767.867249 
	C576.969482,767.867249 562.212463,768.118408 547.471619,767.739075 
	C541.870117,767.594849 537.440735,762.399475 537.130676,756.663757 
	C536.834839,751.189148 536.799805,745.668335 537.147949,740.199524 
	C537.537537,734.079224 542.434998,729.222229 548.613525,729.120789 
	C562.893066,728.886414 577.179077,729.046326 591.722839,729.046326 
	C591.722839,732.346741 591.722839,735.424561 591.722839,739.125610 
	C580.037781,739.125610 568.296692,739.125610 556.065186,739.125610 
z"/>
<path fill="#050505" opacity="1.000000" stroke="none" 
	d="
M157.733185,203.370255 
	C162.177673,209.695312 162.234634,214.397812 156.986893,218.537796 
	C145.436676,227.649841 133.527603,236.306992 120.993866,245.729507 
	C120.993866,241.348999 120.507782,237.833496 121.183693,234.557739 
	C121.564041,232.714432 123.606567,230.876923 125.355370,229.731796 
	C128.013504,227.991241 129.048553,226.044998 128.950897,222.802475 
	C128.695618,214.327560 128.967407,205.837479 128.770477,197.359451 
	C128.734909,195.829163 127.862099,193.510620 126.703018,192.951996 
	C121.277992,190.337372 120.261147,186.019623 120.966194,180.687164 
	C121.138817,179.381577 120.991905,178.033737 120.991905,175.635132 
	C133.540787,185.078949 145.514221,194.089706 157.733185,203.370255 
M138.995255,210.532867 
	C138.995255,213.354568 138.995255,216.176270 138.995255,219.761765 
	C143.619705,216.317688 147.304413,213.573471 151.301056,210.596939 
	C147.160950,207.584976 143.336624,204.802750 138.995255,201.644363 
	C138.995255,204.980240 138.995255,207.290070 138.995255,210.532867 
z"/>
<path fill="#050505" opacity="1.000000" stroke="none" 
	d="
M443.870300,733.868164 
	C451.122833,725.841125 457.044556,726.031372 463.278534,734.321350 
	C471.527985,745.291565 479.692871,756.325378 488.396973,768.006775 
	C484.138458,768.006775 480.615906,768.489258 477.328827,767.818237 
	C475.480743,767.440979 473.619507,765.420898 472.480957,763.673767 
	C470.755035,761.025391 468.873474,759.935364 465.603882,760.043640 
	C457.292572,760.318787 448.963165,760.020264 440.648041,760.229492 
	C438.932556,760.272644 436.320129,761.063660 435.708710,762.297058 
	C433.041595,767.677185 428.784973,768.755432 423.444122,768.034180 
	C422.140533,767.858093 420.792908,768.007996 418.473938,768.007996 
	C427.135895,756.371948 435.401398,745.268372 443.870300,733.868164 
M454.409180,750.004700 
	C456.814514,750.004700 459.219818,750.004700 462.423431,750.004700 
	C459.167450,745.560120 456.399902,741.782288 453.387451,737.670166 
	C450.402588,741.739197 447.632294,745.515747 444.339355,750.004700 
	C447.993073,750.004700 450.735107,750.004700 454.409180,750.004700 
z"/>
<path fill="#030303" opacity="1.000000" stroke="none" 
	d="
M598.843323,739.020996 
	C598.843323,735.543701 598.843323,732.562256 598.843323,729.289551 
	C602.118164,729.289551 605.210754,729.289551 608.782959,729.289551 
	C608.782959,733.836182 608.782959,738.571350 608.782959,743.591309 
	C620.481384,743.591309 631.712341,743.591309 643.470825,743.591309 
	C643.470825,738.771179 643.470825,734.026672 643.470825,729.185791 
	C647.106140,729.185791 650.215088,729.185791 653.566467,729.185791 
	C653.566467,742.106567 653.566467,754.837280 653.566467,767.786621 
	C650.263245,767.786621 647.152283,767.786621 643.664917,767.786621 
	C643.664917,763.320435 643.664917,758.877197 643.664917,754.221313 
	C632.026367,754.221313 620.760498,754.221313 609.085938,754.221313 
	C609.085938,758.680786 609.085938,763.096069 609.085938,767.750183 
	C605.607117,767.750183 602.524536,767.750183 598.843323,767.750183 
	C598.843323,758.360413 598.843323,748.938660 598.843323,739.020996 
z"/>
<path fill="#010101" opacity="1.000000" stroke="none" 
	d="
M128.069000,356.002747 
	C138.853912,356.002747 149.145706,356.002747 159.718170,356.002747 
	C159.718170,359.297699 159.718170,362.378113 159.718170,365.970215 
	C155.139954,365.970215 150.421112,365.970215 145.415039,365.970215 
	C145.415039,377.701569 145.415039,388.932343 145.415039,400.665405 
	C150.075378,400.665405 154.797424,400.665405 159.755768,400.665405 
	C159.755768,404.239685 159.755768,407.326508 159.755768,410.701355 
	C147.058975,410.701355 134.334045,410.701355 121.303352,410.701355 
	C121.303352,407.724365 121.303352,404.645782 121.303352,401.119873 
	C125.507469,401.119873 129.898544,401.119873 134.644058,401.119873 
	C134.644058,389.329407 134.644058,377.971436 134.644058,366.187561 
	C130.234879,366.187561 125.826927,366.187561 121.217758,366.187561 
	C121.217758,362.687622 121.217758,359.603912 121.217758,356.002747 
	C123.365044,356.002747 125.470459,356.002747 128.069000,356.002747 
z"/>
<path fill="#0A0A0A" opacity="1.000000" stroke="none" 
	d="
M208.705261,745.295044 
	C204.614548,741.145569 200.773895,737.246216 196.933258,733.346863 
	C196.389191,733.688354 195.845139,734.029785 195.301086,734.371277 
	C195.883286,735.515320 196.226364,736.895569 197.085815,737.765808 
	C203.520889,744.282043 210.057938,750.697632 216.928741,757.507141 
	C215.241791,759.278625 213.718689,760.877991 212.216446,762.455505 
	C204.624771,755.070740 197.224945,747.956970 189.961014,740.706909 
	C188.980927,739.728699 188.399796,738.121155 188.124359,736.709412 
	C187.294083,732.453857 193.772049,723.474182 199.855637,720.511719 
	C204.671463,718.166748 208.404419,720.175964 211.845322,723.717163 
	C218.215668,730.273315 224.756409,736.663818 231.438934,743.335754 
	C229.592773,745.068115 228.030930,746.533691 225.630981,748.785645 
	C221.949936,744.793640 218.344727,740.675354 214.508530,736.784729 
	C210.956772,733.182556 207.560349,729.293701 203.544525,726.257202 
	C203.304932,726.593384 203.065338,726.929565 202.825729,727.265747 
	C210.177872,734.562927 217.530014,741.860107 225.239243,749.511719 
	C222.463638,752.182739 220.865570,753.720642 218.896393,755.615601 
	C215.456482,752.130859 212.205902,748.838013 208.705261,745.295044 
z"/>
<path fill="#090909" opacity="1.000000" stroke="none" 
	d="
M531.478088,729.462036 
	C531.806091,732.753723 531.806091,735.707947 531.806091,739.113770 
	C524.406677,739.113770 517.332947,739.113770 509.902985,739.113770 
	C509.902985,748.819458 509.902985,758.070496 509.902985,767.666138 
	C506.330566,767.666138 503.115692,767.666138 499.516449,767.666138 
	C499.516449,758.402283 499.516449,749.128723 499.516449,739.382446 
	C492.093292,739.382446 485.022644,739.382446 477.617798,739.382446 
	C477.617798,735.845703 477.617798,732.778137 477.617798,729.124512 
	C495.379578,729.124512 513.264832,729.124512 531.478088,729.462036 
z"/>
<path fill="#010101" opacity="1.000000" stroke="none" 
	d="
M149.874329,251.792389 
	C149.874329,246.006561 149.874329,240.699432 149.874329,235.048157 
	C153.124893,235.048157 156.198090,235.048157 159.637726,235.048157 
	C159.637726,252.657471 159.637726,270.515076 159.637726,288.694214 
	C156.646317,288.694214 153.451950,288.694214 149.841751,288.694214 
	C149.841751,281.524841 149.841751,274.453308 149.841751,267.093506 
	C140.182205,267.093506 130.923477,267.093506 121.333145,267.093506 
	C121.333145,263.599457 121.333145,260.401550 121.333145,256.856415 
	C130.663376,256.856415 139.917130,256.856415 149.563095,256.856415 
	C149.680603,255.124985 149.777466,253.698029 149.874329,251.792389 
z"/>
<path fill="#070707" opacity="1.000000" stroke="none" 
	d="
M196.561646,708.567139 
	C198.087097,709.896851 199.333450,710.996826 200.175995,711.740417 
	C193.476593,718.379761 187.049713,724.749023 180.306366,731.431946 
	C179.685577,730.679443 178.322708,729.027588 176.034241,726.253784 
	C178.482773,724.744690 181.303223,723.006409 184.125763,721.266846 
	C177.291534,714.503174 171.683044,708.952637 165.889435,703.218811 
	C163.805374,705.207092 161.549103,707.359741 159.142365,709.655823 
	C157.532532,707.897644 156.024216,706.250305 154.570938,704.663086 
	C160.730667,698.583008 167.080566,692.315247 173.800201,685.682556 
	C175.165558,687.109070 176.708618,688.721313 178.758652,690.863159 
	C176.110199,693.033020 173.671295,695.031128 171.514679,696.798035 
	C177.581512,702.942932 183.164001,708.597290 188.715332,714.220032 
	C191.013809,712.433289 193.648163,710.385376 196.561646,708.567139 
z"/>
<path fill="#0F0F0F" opacity="1.000000" stroke="none" 
	d="
M149.546936,661.456116 
	C156.751190,668.637634 163.706390,675.570068 171.226700,683.065796 
	C169.315857,684.661133 167.579346,686.110901 165.407394,687.924194 
	C162.141113,684.361694 158.802887,680.720642 155.259598,676.855957 
	C150.159821,682.148071 145.591278,686.888855 140.588837,692.079895 
	C138.775406,689.726501 137.458282,688.017212 135.777939,685.836487 
	C140.224533,681.752625 145.073105,677.299500 150.087341,672.694275 
	C145.702286,668.486450 142.144073,665.072144 138.617264,661.687927 
	C140.924637,659.650024 142.596069,658.173828 145.089554,655.971558 
	C146.177811,657.325439 147.737869,659.266235 149.546936,661.456116 
z"/>
<path fill="#010101" opacity="1.000000" stroke="none" 
	d="
M149.971100,419.002747 
	C153.439407,419.002747 156.413147,419.002747 159.692200,419.002747 
	C159.692200,422.375458 159.692200,425.567841 159.692200,428.944580 
	C146.851349,428.944580 134.144836,428.944580 121.218903,428.944580 
	C121.218903,425.690643 121.218903,422.610870 121.218903,419.002747 
	C130.657883,419.002747 140.067200,419.002747 149.971100,419.002747 
z"/>
<path fill="#050404" opacity="1.000000" stroke="none" 
	d="
M692.153809,103.850525 
	C743.839966,152.027786 795.262756,199.968109 846.693115,247.900269 
	C854.733032,255.393341 862.799561,262.857819 870.868408,270.319702 
	C875.985962,275.052216 875.915039,277.435486 870.996155,282.710144 
	C832.707397,323.767853 794.508057,364.908997 756.191467,405.940643 
	C718.667297,446.123749 681.064453,486.233521 643.434387,526.317505 
	C634.471313,535.865112 634.384460,535.730591 624.603760,526.619873 
	C581.088623,486.085297 537.533203,445.593994 494.038940,405.037018 
	C458.096069,371.521454 422.218506,337.935883 386.312439,304.380890 
	C385.460236,303.584503 384.631042,302.762604 383.760864,301.986572 
	C375.147247,294.304535 375.109344,293.194824 383.155365,284.585907 
	C427.973877,236.631714 472.799438,188.684097 517.605164,140.718002 
	C544.558411,111.863647 571.479553,82.979340 598.416016,54.109352 
	C602.925537,49.276157 607.422607,44.431271 611.956848,39.621452 
	C616.102234,35.224148 618.588684,35.100834 622.883850,39.109577 
	C639.812622,54.909336 656.725037,70.726578 673.642090,86.538895 
	C679.727844,92.227272 685.809509,97.920105 692.153809,103.850525 
M683.217285,428.780334 
	C718.840088,390.581879 754.462891,352.383423 790.232971,314.027069 
	C741.051575,268.166138 692.288696,222.695511 643.395142,177.102951 
	C607.025146,216.107056 570.980652,254.762161 534.908813,293.446533 
	C542.328430,300.365662 549.393860,306.952911 556.457581,313.542053 
	C597.259033,351.602295 638.053345,389.670349 678.903564,427.678162 
	C679.857788,428.565979 681.440186,428.778534 683.217285,428.780334 
M622.146790,143.647476 
	C636.813782,127.970825 651.480774,112.294167 666.329651,96.423111 
	C657.148926,87.876701 648.165466,79.513985 638.921448,70.908722 
	C610.965393,100.841324 583.273743,130.490753 555.455383,160.275909 
	C564.692688,168.928299 573.616699,177.287201 582.788330,185.878036 
	C596.023254,171.682556 608.847107,157.927948 622.146790,143.647476 
M428.494293,327.006195 
	C432.475037,330.696167 436.455780,334.386139 440.555054,338.186005 
	C468.477875,308.267242 496.146881,278.620422 523.847351,248.939896 
	C514.551331,240.223846 505.712219,231.936234 496.630066,223.420715 
	C468.708893,253.307083 441.047302,282.915588 413.219971,312.701508 
	C418.277100,317.441772 423.124695,321.985596 428.494293,327.006195 
M591.746948,355.768555 
	C589.559204,352.776611 588.261169,355.145996 586.887756,356.616180 
	C574.278992,370.113281 561.684326,383.623566 549.090759,397.134827 
	C542.112854,404.621185 535.144714,412.116669 528.004944,419.787750 
	C537.241699,428.396423 546.229919,436.773438 555.487671,445.401672 
	C576.068115,423.363892 596.485962,401.500183 617.095215,379.431549 
	C608.762085,371.650055 600.514221,363.948242 591.746948,355.768555 
M481.313629,354.811157 
	C477.794464,358.544678 474.275330,362.278198 470.560242,366.219635 
	C479.778076,374.806061 488.723297,383.138519 497.963348,391.745667 
	C518.660278,369.565674 539.047363,347.717682 559.562256,325.732819 
	C550.263916,317.086914 541.311035,308.762207 532.142029,300.236511 
	C515.112854,318.522827 498.455353,336.410004 481.313629,354.811157 
M586.269531,474.089020 
	C595.012817,482.257904 603.756042,490.426819 612.879883,498.951294 
	C633.473572,476.885681 653.940735,454.955597 674.494141,432.933167 
	C665.130005,424.206482 656.274536,415.953827 646.570190,406.910065 
	C645.557068,408.378693 644.846436,409.732544 643.842834,410.814606 
	C631.845764,423.749023 619.778259,436.618042 607.786072,449.556885 
	C600.443665,457.478882 593.199280,465.491638 586.269531,474.089020 
M518.940186,227.555511 
	C523.365784,231.677017 527.791443,235.798538 532.260681,239.960693 
	C546.583313,224.603607 560.415649,209.772171 574.434753,194.740479 
	C558.192810,179.543976 542.225891,164.604858 526.100281,149.517288 
	C511.797394,164.824326 497.889099,179.709000 483.833405,194.751450 
	C495.570068,205.710617 507.002777,216.385956 518.940186,227.555511 
M478.159607,315.658539 
	C468.647858,325.879608 459.136108,336.100677 449.425262,346.535736 
	C453.581940,350.398834 457.536194,354.073761 461.693176,357.937134 
	C498.070618,318.961639 534.154846,280.300262 570.406189,241.459854 
	C566.234619,237.600693 562.348694,234.005859 558.124756,230.098251 
	C531.554443,258.534210 505.102295,286.843689 478.159607,315.658539 
M622.408691,185.899628 
	C643.976929,162.758865 665.545166,139.618103 687.431824,116.135727 
	C683.315002,112.277550 679.374634,108.584709 675.225769,104.696533 
	C638.826782,143.670212 602.716797,182.334473 566.481567,221.132858 
	C570.715942,225.073242 574.587097,228.675629 578.695801,232.499039 
	C593.228638,217.010788 607.578491,201.717529 622.408691,185.899628 
M661.853943,464.354187 
	C648.568359,478.568756 635.282715,492.783295 621.791931,507.217407 
	C625.942139,511.098206 629.858276,514.760132 633.918579,518.556885 
	C670.330444,479.541565 706.303955,440.996002 742.572510,402.134308 
	C738.390259,398.215698 734.478760,394.550781 730.472534,390.797150 
	C707.530151,415.384369 684.929260,439.605621 661.853943,464.354187 
M853.529541,270.979797 
	C851.585022,269.203400 849.640503,267.427002 847.535278,265.503815 
	C811.221680,304.371796 775.136414,342.995331 738.802063,381.885468 
	C743.017578,385.757568 746.975220,389.392761 751.012817,393.101410 
	C787.429382,354.120544 823.427429,315.587708 859.694763,276.766571 
	C857.625732,274.822021 855.839417,273.143127 853.529541,270.979797 
M756.041077,180.077682 
	C755.271851,179.459595 754.502625,178.841522 753.622864,178.134613 
	C738.239075,194.613388 722.951416,210.989212 707.480774,227.561066 
	C716.788696,236.231201 725.771301,244.598328 734.984192,253.179916 
	C750.543457,236.525497 765.852173,220.139221 781.273743,203.632126 
	C772.892517,195.813049 764.740601,188.207947 756.041077,180.077682 
M690.355530,130.841812 
	C677.002014,145.158569 663.648499,159.475311 650.071411,174.031738 
	C659.403320,182.716599 668.352661,191.045486 677.456482,199.518112 
	C693.050659,182.811676 708.324951,166.448013 723.723694,149.951035 
	C714.399414,141.263016 705.529419,132.998260 696.348267,124.443542 
	C694.432190,126.493118 692.638916,128.411392 690.355530,130.841812 
M784.197266,260.699432 
	C777.846497,267.497223 771.495728,274.295013 765.020691,281.225739 
	C774.314087,289.877625 783.291565,298.235413 792.398071,306.713348 
	C807.956421,290.048309 823.232544,273.685547 838.660767,257.159912 
	C829.307068,248.425415 820.439941,240.145233 811.331604,231.639816 
	C802.380737,241.226044 793.530151,250.704880 784.197266,260.699432 
M452.445984,252.943588 
	C464.101562,240.438004 475.757141,227.932434 487.677979,215.142242 
	C483.503662,211.190552 479.591461,207.487045 475.529297,203.641541 
	C447.489899,233.662384 419.831238,263.275543 392.034119,293.036987 
	C396.348511,297.027496 400.232544,300.619995 404.321991,304.402466 
	C420.368988,287.237518 436.161011,270.345337 452.445984,252.943588 
M611.460815,57.946106 
	C585.796143,85.426903 560.131531,112.907700 534.359924,140.502991 
	C538.529602,144.401337 542.455383,148.071671 546.471252,151.826218 
	C574.477051,121.828072 602.138489,92.198784 629.904663,62.457348 
	C625.656982,58.529953 621.789551,54.954102 618.202209,51.637211 
	C615.856567,53.805588 613.901001,55.613354 611.460815,57.946106 
M575.514465,350.979095 
	C577.168396,349.186279 578.822388,347.393463 580.647217,345.415405 
	C576.428833,341.481354 572.497437,337.814941 568.449768,334.040131 
	C547.726746,356.246826 527.355835,378.076294 506.818939,400.083557 
	C511.135681,404.058563 515.095093,407.704498 519.160645,411.448181 
	C538.077271,391.145233 556.548889,371.319885 575.514465,350.979095 
M576.513733,464.717743 
	C588.824402,451.648041 601.155701,438.597656 613.438477,425.501801 
	C621.605713,416.793915 629.703735,408.021118 638.108093,398.981140 
	C633.942688,395.114502 629.993958,391.449005 625.983765,387.726501 
	C605.278748,409.904449 584.973816,431.653809 564.382141,453.710388 
	C568.311218,457.341614 572.077026,460.821869 576.513733,464.717743 
M696.329041,217.178879 
	C697.048340,217.811508 697.767639,218.444122 698.632385,219.204666 
	C714.069824,202.664536 729.360779,186.281357 744.865479,169.669098 
	C740.666504,165.746017 736.714600,162.053879 732.642700,158.249542 
	C717.078857,174.918335 701.814148,191.266693 686.376160,207.800705 
	C689.792419,211.024704 692.798645,213.861771 696.329041,217.178879 
M779.792175,247.291595 
	C787.236389,239.320221 794.680664,231.348831 802.292908,223.197617 
	C798.084412,219.288925 794.242859,215.721054 790.202759,211.968796 
	C776.510376,226.553925 763.077148,240.851837 749.661194,255.166031 
	C747.741821,257.213959 745.906494,259.340729 743.912842,261.564117 
	C748.034302,265.348663 752.008972,268.998352 756.062683,272.720703 
	C764.103271,264.104126 771.706848,255.955902 779.792175,247.291595 
z"/>
<path fill="#070400" opacity="1.000000" stroke="none" 
	d="
M504.313232,500.172546 
	C510.007690,495.828156 513.535522,495.894043 518.180176,500.435699 
	C524.949219,507.054718 531.621887,513.772400 538.845276,520.954773 
	C536.880066,522.624268 535.260437,524.000183 532.655273,526.213318 
	C529.093872,522.288269 525.653442,518.017212 521.704163,514.284546 
	C518.069580,510.849304 515.358215,506.055908 509.909698,504.928314 
	C517.246033,512.208557 524.582397,519.488831 532.175842,527.024231 
	C529.681946,529.635071 528.226990,531.158203 526.170837,533.310791 
	C519.559937,526.588684 513.101257,519.956360 506.541840,513.425293 
	C505.617828,512.505249 504.201630,512.079468 503.013306,511.424896 
	C502.689453,511.917725 502.365601,512.410583 502.041748,512.903381 
	C509.522644,520.151001 517.003540,527.398560 524.507385,534.668335 
	C522.349670,536.993713 520.907166,538.548279 519.342957,540.234009 
	C511.833771,532.833069 504.477814,525.867310 497.476868,518.561340 
	C494.055634,514.991150 494.389496,510.637939 497.734009,506.833099 
	C499.710449,504.584625 501.933167,502.552612 504.313232,500.172546 
z"/>
<path fill="#080500" opacity="1.000000" stroke="none" 
	d="
M462.764313,459.347290 
	C464.347900,460.617340 465.678864,461.624390 468.092468,463.450592 
	C465.010040,466.061432 462.791382,467.983032 460.526947,469.849121 
	C456.761414,472.952179 452.300842,473.178528 448.749084,469.878418 
	C443.391815,464.900787 438.343323,459.590668 433.173492,454.411926 
	C432.824005,454.061829 432.525574,453.649384 432.257294,453.231323 
	C428.931000,448.048065 431.108490,443.187103 440.345673,435.152130 
	C444.415466,431.612061 448.971771,431.439301 452.849335,435.180206 
	C459.903015,441.985229 466.741119,449.013702 473.944458,456.224518 
	C472.397644,457.893555 470.992584,459.409637 469.360901,461.170227 
	C462.091339,453.543121 454.927612,446.027069 447.625641,438.365967 
	C443.723572,442.417572 440.888489,445.361298 438.229431,448.122284 
	C443.784790,453.549591 449.431580,459.066284 455.078400,464.582977 
	C455.358826,464.506348 455.639252,464.429718 455.919678,464.353088 
	C454.992493,462.885315 454.310852,461.151428 453.078552,460.014343 
	C451.383667,458.450409 449.272125,457.338043 447.017487,455.814880 
	C449.852203,452.942413 451.330475,451.444489 453.327484,449.420898 
	C456.604187,452.868561 459.557953,455.976410 462.764313,459.347290 
z"/>
<path fill="#0A0600" opacity="1.000000" stroke="none" 
	d="
M403.359467,386.111328 
	C405.444092,391.755707 403.149933,395.881592 398.920227,398.359802 
	C395.994293,400.074097 393.838654,401.742554 392.571167,404.907196 
	C391.863281,406.674683 390.288086,408.094818 388.863251,409.991547 
	C386.456818,407.654907 384.937805,406.179932 383.257111,404.547974 
	C384.996399,402.575989 386.393951,400.991455 387.545654,399.685669 
	C381.952454,394.141510 376.441956,388.679352 370.505463,382.794922 
	C369.524780,383.640472 367.843933,385.089752 365.949951,386.722717 
	C364.570953,384.930908 363.282257,383.256439 362.236206,381.897217 
	C368.136414,376.098145 374.574188,369.770721 379.832977,364.602081 
	C387.213318,371.297485 395.189575,378.533508 403.359467,386.111328 
M382.639648,374.832275 
	C379.007874,370.872406 378.443909,375.325195 376.952332,376.358765 
	C382.757080,382.166138 388.320465,387.731964 394.012695,393.426727 
	C394.967773,392.407257 396.157898,391.136902 397.600464,389.597107 
	C392.555756,384.620087 387.850891,379.978363 382.639648,374.832275 
z"/>
<path fill="#080500" opacity="1.000000" stroke="none" 
	d="
M803.526001,88.212379 
	C804.894226,91.145355 806.510986,93.783081 806.863647,96.580177 
	C807.937683,105.098969 808.524048,113.679237 809.410217,123.446274 
	C814.634827,117.292137 819.181458,111.936638 824.031189,106.224037 
	C826.151978,108.064621 827.967712,109.640450 829.901001,111.318298 
	C825.058167,117.082176 820.436890,122.543991 815.861328,128.043945 
	C813.485352,130.899979 810.198608,132.539658 807.073547,130.784607 
	C804.695740,129.449280 802.181152,126.425514 801.786316,123.838646 
	C800.365173,114.529175 799.816895,105.086433 798.842224,94.660805 
	C793.679443,100.757980 789.123352,106.138710 784.337952,111.790215 
	C782.322021,110.160378 780.550171,108.727913 778.246277,106.865242 
	C783.609131,100.592232 788.399902,94.207161 794.106628,88.786385 
	C795.831970,87.147514 800.095581,88.180756 803.526001,88.212379 
z"/>
<path fill="#070400" opacity="1.000000" stroke="none" 
	d="
M367.419037,349.647095 
	C373.614532,356.154785 373.560699,359.835388 367.441193,366.006409 
	C357.024750,376.510559 355.214172,376.483826 344.583282,365.904480 
	C339.393524,360.739899 334.122864,355.656616 329.352875,350.990509 
	C335.941986,344.388397 342.230713,338.087250 349.058807,331.245697 
	C354.576660,336.777283 360.868988,343.085327 367.419037,349.647095 
M355.689972,366.581696 
	C358.938324,363.749237 362.186707,360.916809 364.956757,358.501434 
	C358.927246,352.283783 353.515198,346.702850 348.481995,341.512604 
	C345.445923,344.406311 342.401886,347.307587 339.259277,350.302826 
	C344.559174,355.612091 349.843964,360.906250 355.689972,366.581696 
z"/>
<path fill="#110B00" opacity="1.000000" stroke="none" 
	d="
M477.909210,472.308289 
	C473.453644,476.850739 469.348633,481.198639 464.615173,486.212158 
	C462.842926,483.818878 461.583130,482.117615 460.238068,480.301239 
	C464.995148,475.356415 469.764496,469.614563 475.355164,464.833008 
	C479.915497,460.932648 486.083191,464.445892 486.470490,470.993835 
	C486.882568,477.960480 486.644653,484.965027 486.716919,491.952728 
	C486.733307,493.535492 486.858521,495.117157 486.972778,497.524689 
	C491.825592,492.344696 496.091217,487.791443 500.703430,482.868225 
	C502.860931,485.395966 504.307312,487.090576 505.946014,489.010498 
	C501.395569,493.602905 496.740173,498.838989 491.453949,503.333069 
	C489.696198,504.827454 485.722137,505.561157 483.840942,504.577698 
	C481.686096,503.451172 479.681488,500.119751 479.458435,497.583771 
	C478.848206,490.646454 479.260254,483.622925 479.142487,476.635651 
	C479.117035,475.123810 478.567749,473.620819 477.909210,472.308289 
z"/>
<path fill="#080500" opacity="1.000000" stroke="none" 
	d="
M419.856995,435.098572 
	C414.706635,429.204285 409.545288,423.662506 404.289490,418.211823 
	C403.832703,417.738129 402.654236,417.549316 401.979248,417.762054 
	C396.637573,419.445587 394.171539,415.738586 390.888672,411.776947 
	C401.865601,410.240631 412.287598,408.446167 422.785461,407.456238 
	C427.933746,406.970825 430.668640,411.129303 429.864441,417.118622 
	C428.587585,426.628601 427.079163,436.107513 425.588135,446.141968 
	C421.745148,443.256012 417.685822,441.108124 419.856995,435.098572 
M422.893707,415.858246 
	C419.727600,415.635071 416.561523,415.411926 412.967102,415.158569 
	C416.174591,418.584320 418.651276,421.229553 421.449493,424.218170 
	C421.959442,421.397858 422.389038,419.021912 422.893707,415.858246 
z"/>
<path fill="#110B00" opacity="1.000000" stroke="none" 
	d="
M544.828064,544.772339 
	C546.100281,543.443054 547.122070,542.369324 548.519226,540.901062 
	C544.698181,537.584961 540.977295,534.355896 537.024109,530.925232 
	C539.750977,528.517517 541.418762,527.044983 542.780029,525.843079 
	C551.380676,534.449402 560.271179,543.345703 569.539612,552.620239 
	C568.274841,553.742004 566.692932,555.144958 564.622009,556.981689 
	C561.381836,553.321960 558.121887,549.639954 554.506165,545.555969 
	C549.269714,551.255859 544.819824,556.099609 539.954590,561.395447 
	C537.621277,558.831665 536.183899,557.252380 533.715942,554.540649 
	C537.373840,551.337036 540.975708,548.182495 544.828064,544.772339 
z"/>
<path fill="#080500" opacity="1.000000" stroke="none" 
	d="
M784.197876,82.177094 
	C785.798950,80.267563 787.171265,78.628868 788.776123,76.712540 
	C790.776001,78.400909 792.523132,79.875862 794.751038,81.756683 
	C788.356689,89.379974 782.097595,96.842072 775.568420,104.626091 
	C773.453186,102.835472 771.612854,101.277596 769.598511,99.572372 
	C774.564636,93.654579 779.266846,88.051254 784.197876,82.177094 
z"/>
<path fill="#F2F2F2" opacity="1.000000" stroke="none" 
	d="
M748.010986,739.096863 
	C755.313599,739.096863 762.117859,739.096863 769.262756,739.096863 
	C769.262756,742.076721 769.262756,744.791199 769.262756,747.688660 
	C757.808655,747.688660 746.583252,747.688660 735.155273,747.688660 
	C735.155273,744.866577 735.155273,742.268066 735.155273,739.096863 
	C739.309021,739.096863 743.410828,739.096863 748.010986,739.096863 
z"/>
<path fill="#F8F8F8" opacity="1.000000" stroke="none" 
	d="
M138.995255,210.066376 
	C138.995255,207.290070 138.995255,204.980240 138.995255,201.644363 
	C143.336624,204.802750 147.160950,207.584976 151.301056,210.596939 
	C147.304413,213.573471 143.619705,216.317688 138.995255,219.761765 
	C138.995255,216.176270 138.995255,213.354568 138.995255,210.066376 
z"/>
<path fill="#F8F8F8" opacity="1.000000" stroke="none" 
	d="
M453.943176,750.004700 
	C450.735107,750.004700 447.993073,750.004700 444.339355,750.004700 
	C447.632294,745.515747 450.402588,741.739197 453.387451,737.670166 
	C456.399902,741.782288 459.167450,745.560120 462.423431,750.004700 
	C459.219818,750.004700 456.814514,750.004700 453.943176,750.004700 
z"/>
<path fill="#FCFCFC" opacity="1.000000" stroke="none" 
	d="
M682.973450,429.043182 
	C681.440186,428.778534 679.857788,428.565979 678.903564,427.678162 
	C638.053345,389.670349 597.259033,351.602295 556.457581,313.542053 
	C549.393860,306.952911 542.328430,300.365662 534.908813,293.446533 
	C570.980652,254.762161 607.025146,216.107056 643.395142,177.102951 
	C692.288696,222.695511 741.051575,268.166138 790.232971,314.027069 
	C754.462891,352.383423 718.840088,390.581879 682.973450,429.043182 
M576.251770,313.044525 
	C582.250671,340.719788 608.620972,353.822632 632.493958,345.952484 
	C639.761047,343.556732 639.726624,343.452301 645.204834,350.328979 
	C643.837830,351.834259 642.415039,353.409729 640.982422,354.976288 
	C638.597046,357.584839 637.976990,360.451721 639.720337,363.652466 
	C641.531128,366.977081 644.506958,367.554260 647.860413,366.900177 
	C650.958069,366.295959 653.990540,365.135620 657.102295,364.906342 
	C659.102356,364.758881 661.651794,365.284424 663.157410,366.497864 
	C667.425537,369.937744 671.272461,373.898529 675.305603,377.632141 
	C682.673523,384.453064 688.941406,384.255737 695.964172,376.824097 
	C703.513611,368.835052 711.003113,360.787933 718.425598,352.680817 
	C725.306030,345.165894 725.018677,338.838684 717.611206,331.921600 
	C705.925354,321.009308 694.062012,310.281219 682.576660,299.162384 
	C676.000122,292.795685 669.510742,288.087952 660.510620,294.800995 
	C660.109497,293.641571 659.881226,293.017365 659.676636,292.385498 
	C650.715332,264.704834 618.382935,253.222214 594.461243,269.689545 
	C579.726624,279.832611 573.993896,294.487396 576.251770,313.044525 
M688.904541,243.057938 
	C688.931458,241.726257 688.998291,240.394028 688.979248,239.063004 
	C688.784363,225.426514 678.174927,212.984421 665.093018,211.033112 
	C650.671997,208.882004 637.192810,217.294174 632.884094,231.134232 
	C628.694641,244.591187 634.765198,258.902802 647.562744,265.201477 
	C664.305847,273.441986 684.773438,264.291718 688.904541,243.057938 
M736.437744,271.919861 
	C723.309570,266.003510 710.017578,271.399811 706.681091,284.613770 
	C704.778931,292.146881 703.926453,299.990387 703.156677,307.749237 
	C702.579651,313.565338 706.547546,316.678162 712.326294,315.559998 
	C718.026855,314.456970 723.689270,313.157593 729.386658,312.036835 
	C739.595886,310.028534 746.272034,304.135437 747.923340,295.566132 
	C749.730042,286.190369 745.997681,278.179169 736.437744,271.919861 
z"/>
<path fill="#FDFDFD" opacity="1.000000" stroke="none" 
	d="
M621.908936,143.910400 
	C608.847107,157.927948 596.023254,171.682556 582.788330,185.878036 
	C573.616699,177.287201 564.692688,168.928299 555.455383,160.275909 
	C583.273743,130.490753 610.965393,100.841324 638.921448,70.908722 
	C648.165466,79.513985 657.148926,87.876701 666.329651,96.423111 
	C651.480774,112.294167 636.813782,127.970825 621.908936,143.910400 
z"/>
<path fill="#FDFDFD" opacity="1.000000" stroke="none" 
	d="
M428.233276,326.767822 
	C423.124695,321.985596 418.277100,317.441772 413.219971,312.701508 
	C441.047302,282.915588 468.708893,253.307083 496.630066,223.420715 
	C505.712219,231.936234 514.551331,240.223846 523.847351,248.939896 
	C496.146881,278.620422 468.477875,308.267242 440.555054,338.186005 
	C436.455780,334.386139 432.475037,330.696167 428.233276,326.767822 
z"/>
<path fill="#FDFDFD" opacity="1.000000" stroke="none" 
	d="
M592.006714,356.007507 
	C600.514221,363.948242 608.762085,371.650055 617.095215,379.431549 
	C596.485962,401.500183 576.068115,423.363892 555.487671,445.401672 
	C546.229919,436.773438 537.241699,428.396423 528.004944,419.787750 
	C535.144714,412.116669 542.112854,404.621185 549.090759,397.134827 
	C561.684326,383.623566 574.278992,370.113281 586.887756,356.616180 
	C588.261169,355.145996 589.559204,352.776611 592.006714,356.007507 
z"/>
<path fill="#FDFDFD" opacity="1.000000" stroke="none" 
	d="
M481.555756,354.554169 
	C498.455353,336.410004 515.112854,318.522827 532.142029,300.236511 
	C541.311035,308.762207 550.263916,317.086914 559.562256,325.732819 
	C539.047363,347.717682 518.660278,369.565674 497.963348,391.745667 
	C488.723297,383.138519 479.778076,374.806061 470.560242,366.219635 
	C474.275330,362.278198 477.794464,358.544678 481.555756,354.554169 
z"/>
<path fill="#FDFDFD" opacity="1.000000" stroke="none" 
	d="
M586.090210,473.776306 
	C593.199280,465.491638 600.443665,457.478882 607.786072,449.556885 
	C619.778259,436.618042 631.845764,423.749023 643.842834,410.814606 
	C644.846436,409.732544 645.557068,408.378693 646.570190,406.910065 
	C656.274536,415.953827 665.130005,424.206482 674.494141,432.933167 
	C653.940735,454.955597 633.473572,476.885681 612.879883,498.951294 
	C603.756042,490.426819 595.012817,482.257904 586.090210,473.776306 
z"/>
<path fill="#FBFBFB" opacity="1.000000" stroke="none" 
	d="
M518.687866,227.308395 
	C507.002777,216.385956 495.570068,205.710617 483.833405,194.751450 
	C497.889099,179.709000 511.797394,164.824326 526.100281,149.517288 
	C542.225891,164.604858 558.192810,179.543976 574.434753,194.740479 
	C560.415649,209.772171 546.583313,224.603607 532.260681,239.960693 
	C527.791443,235.798538 523.365784,231.677017 518.687866,227.308395 
M518.130310,196.233170 
	C516.097656,198.931580 514.061890,201.627609 512.033264,204.329056 
	C509.743347,207.378479 509.372437,210.520050 512.362244,213.208221 
	C515.168701,215.731567 518.202759,215.135513 520.852539,212.734497 
	C522.323914,211.401184 523.662659,209.895187 524.905518,208.342438 
	C526.526428,206.317413 528.119019,205.795868 530.881165,206.520035 
	C536.134766,207.897385 541.100403,206.332077 545.334900,202.970840 
	C552.398254,197.364120 554.058228,187.642029 549.373474,180.157562 
	C544.647034,172.606552 535.287598,169.731461 527.146912,173.329895 
	C518.738342,177.046738 515.084961,185.787354 518.130310,196.233170 
z"/>
<path fill="#FBFBFB" opacity="1.000000" stroke="none" 
	d="
M478.404877,315.405853 
	C505.102295,286.843689 531.554443,258.534210 558.124756,230.098251 
	C562.348694,234.005859 566.234619,237.600693 570.406189,241.459854 
	C534.154846,280.300262 498.070618,318.961639 461.693176,357.937134 
	C457.536194,354.073761 453.581940,350.398834 449.425262,346.535736 
	C459.136108,336.100677 468.647858,325.879608 478.404877,315.405853 
z"/>
<path fill="#FBFBFB" opacity="1.000000" stroke="none" 
	d="
M622.168518,186.161957 
	C607.578491,201.717529 593.228638,217.010788 578.695801,232.499039 
	C574.587097,228.675629 570.715942,225.073242 566.481567,221.132858 
	C602.716797,182.334473 638.826782,143.670212 675.225769,104.696533 
	C679.374634,108.584709 683.315002,112.277550 687.431824,116.135727 
	C665.545166,139.618103 643.976929,162.758865 622.168518,186.161957 
z"/>
<path fill="#FBFBFB" opacity="1.000000" stroke="none" 
	d="
M662.091187,464.090515 
	C684.929260,439.605621 707.530151,415.384369 730.472534,390.797150 
	C734.478760,394.550781 738.390259,398.215698 742.572510,402.134308 
	C706.303955,440.996002 670.330444,479.541565 633.918579,518.556885 
	C629.858276,514.760132 625.942139,511.098206 621.791931,507.217407 
	C635.282715,492.783295 648.568359,478.568756 662.091187,464.090515 
z"/>
<path fill="#FBFBFB" opacity="1.000000" stroke="none" 
	d="
M853.791321,271.222015 
	C855.839417,273.143127 857.625732,274.822021 859.694763,276.766571 
	C823.427429,315.587708 787.429382,354.120544 751.012817,393.101410 
	C746.975220,389.392761 743.017578,385.757568 738.802063,381.885468 
	C775.136414,342.995331 811.221680,304.371796 847.535278,265.503815 
	C849.640503,267.427002 851.585022,269.203400 853.791321,271.222015 
z"/>
<path fill="#FCFCFC" opacity="1.000000" stroke="none" 
	d="
M756.314880,180.340271 
	C764.740601,188.207947 772.892517,195.813049 781.273743,203.632126 
	C765.852173,220.139221 750.543457,236.525497 734.984192,253.179916 
	C725.771301,244.598328 716.788696,236.231201 707.480774,227.561066 
	C722.951416,210.989212 738.239075,194.613388 753.622864,178.134613 
	C754.502625,178.841522 755.271851,179.459595 756.314880,180.340271 
z"/>
<path fill="#FCFCFC" opacity="1.000000" stroke="none" 
	d="
M690.600586,130.585739 
	C692.638916,128.411392 694.432190,126.493118 696.348267,124.443542 
	C705.529419,132.998260 714.399414,141.263016 723.723694,149.951035 
	C708.324951,166.448013 693.050659,182.811676 677.456482,199.518112 
	C668.352661,191.045486 659.403320,182.716599 650.071411,174.031738 
	C663.648499,159.475311 677.002014,145.158569 690.600586,130.585739 
z"/>
<path fill="#FCFCFC" opacity="1.000000" stroke="none" 
	d="
M784.438416,260.441589 
	C793.530151,250.704880 802.380737,241.226044 811.331604,231.639816 
	C820.439941,240.145233 829.307068,248.425415 838.660767,257.159912 
	C823.232544,273.685547 807.956421,290.048309 792.398071,306.713348 
	C783.291565,298.235413 774.314087,289.877625 765.020691,281.225739 
	C771.495728,274.295013 777.846497,267.497223 784.438416,260.441589 
z"/>
<path fill="#FBFBFB" opacity="1.000000" stroke="none" 
	d="
M452.199524,253.198364 
	C436.161011,270.345337 420.368988,287.237518 404.321991,304.402466 
	C400.232544,300.619995 396.348511,297.027496 392.034119,293.036987 
	C419.831238,263.275543 447.489899,233.662384 475.529297,203.641541 
	C479.591461,207.487045 483.503662,211.190552 487.677979,215.142242 
	C475.757141,227.932434 464.101562,240.438004 452.199524,253.198364 
z"/>
<path fill="#FBFBFB" opacity="1.000000" stroke="none" 
	d="
M611.703125,57.683613 
	C613.901001,55.613354 615.856567,53.805588 618.202209,51.637211 
	C621.789551,54.954102 625.656982,58.529953 629.904663,62.457348 
	C602.138489,92.198784 574.477051,121.828072 546.471252,151.826218 
	C542.455383,148.071671 538.529602,144.401337 534.359924,140.502991 
	C560.131531,112.907700 585.796143,85.426903 611.703125,57.683613 
z"/>
<path fill="#FBFBFB" opacity="1.000000" stroke="none" 
	d="
M575.267456,351.236816 
	C556.548889,371.319885 538.077271,391.145233 519.160645,411.448181 
	C515.095093,407.704498 511.135681,404.058563 506.818939,400.083557 
	C527.355835,378.076294 547.726746,356.246826 568.449768,334.040131 
	C572.497437,337.814941 576.428833,341.481354 580.647217,345.415405 
	C578.822388,347.393463 577.168396,349.186279 575.267456,351.236816 
z"/>
<path fill="#FBFBFB" opacity="1.000000" stroke="none" 
	d="
M576.178223,464.509949 
	C572.077026,460.821869 568.311218,457.341614 564.382141,453.710388 
	C584.973816,431.653809 605.278748,409.904449 625.983765,387.726501 
	C629.993958,391.449005 633.942688,395.114502 638.108093,398.981140 
	C629.703735,408.021118 621.605713,416.793915 613.438477,425.501801 
	C601.155701,438.597656 588.824402,451.648041 576.178223,464.509949 
z"/>
<path fill="#FBFBFB" opacity="1.000000" stroke="none" 
	d="
M696.066956,216.938858 
	C692.798645,213.861771 689.792419,211.024704 686.376160,207.800705 
	C701.814148,191.266693 717.078857,174.918335 732.642700,158.249542 
	C736.714600,162.053879 740.666504,165.746017 744.865479,169.669098 
	C729.360779,186.281357 714.069824,202.664536 698.632385,219.204666 
	C697.767639,218.444122 697.048340,217.811508 696.066956,216.938858 
z"/>
<path fill="#FBFBFB" opacity="1.000000" stroke="none" 
	d="
M779.551331,247.549637 
	C771.706848,255.955902 764.103271,264.104126 756.062683,272.720703 
	C752.008972,268.998352 748.034302,265.348663 743.912842,261.564117 
	C745.906494,259.340729 747.741821,257.213959 749.661194,255.166031 
	C763.077148,240.851837 776.510376,226.553925 790.202759,211.968796 
	C794.242859,215.721054 798.084412,219.288925 802.292908,223.197617 
	C794.680664,231.348831 787.236389,239.320221 779.551331,247.549637 
z"/>
<path fill="#F59400" opacity="1.000000" stroke="none" 
	d="
M382.892853,375.084473 
	C387.850891,379.978363 392.555756,384.620087 397.600464,389.597107 
	C396.157898,391.136902 394.967773,392.407257 394.012695,393.426727 
	C388.320465,387.731964 382.757080,382.166138 376.952332,376.358765 
	C378.443909,375.325195 379.007874,370.872406 382.892853,375.084473 
z"/>
<path fill="#F59400" opacity="1.000000" stroke="none" 
	d="
M355.409363,366.391052 
	C349.843964,360.906250 344.559174,355.612091 339.259277,350.302826 
	C342.401886,347.307587 345.445923,344.406311 348.481995,341.512604 
	C353.515198,346.702850 358.927246,352.283783 364.956757,358.501434 
	C362.186707,360.916809 358.938324,363.749237 355.409363,366.391052 
z"/>
<path fill="#F59400" opacity="1.000000" stroke="none" 
	d="
M422.856171,416.252106 
	C422.389038,419.021912 421.959442,421.397858 421.449493,424.218170 
	C418.651276,421.229553 416.174591,418.584320 412.967102,415.158569 
	C416.561523,415.411926 419.727600,415.635071 422.856171,416.252106 
z"/>
<path fill="#0E0E0E" opacity="1.000000" stroke="none" 
	d="
M576.185181,312.631775 
	C573.993896,294.487396 579.726624,279.832611 594.461243,269.689545 
	C618.382935,253.222214 650.715332,264.704834 659.676636,292.385498 
	C659.881226,293.017365 660.109497,293.641571 660.510620,294.800995 
	C669.510742,288.087952 676.000122,292.795685 682.576660,299.162384 
	C694.062012,310.281219 705.925354,321.009308 717.611206,331.921600 
	C725.018677,338.838684 725.306030,345.165894 718.425598,352.680817 
	C711.003113,360.787933 703.513611,368.835052 695.964172,376.824097 
	C688.941406,384.255737 682.673523,384.453064 675.305603,377.632141 
	C671.272461,373.898529 667.425537,369.937744 663.157410,366.497864 
	C661.651794,365.284424 659.102356,364.758881 657.102295,364.906342 
	C653.990540,365.135620 650.958069,366.295959 647.860413,366.900177 
	C644.506958,367.554260 641.531128,366.977081 639.720337,363.652466 
	C637.976990,360.451721 638.597046,357.584839 640.982422,354.976288 
	C642.415039,353.409729 643.837830,351.834259 645.204834,350.328979 
	C639.726624,343.452301 639.761047,343.556732 632.493958,345.952484 
	C608.620972,353.822632 582.250671,340.719788 576.185181,312.631775 
M664.887573,361.393311 
	C669.630310,365.828308 674.348633,370.289673 679.122559,374.690887 
	C683.906738,379.101624 686.962708,379.036224 691.422974,374.297241 
	C699.526184,365.687622 707.579163,357.030273 715.599182,348.343079 
	C719.450317,344.171692 719.395264,340.556122 715.299805,336.705444 
	C701.954895,324.158173 688.543701,311.681396 675.147583,299.188660 
	C672.736145,296.939850 670.098267,295.087036 666.671570,296.910522 
	C663.316223,298.696014 660.900391,301.022095 661.207825,305.461273 
	C661.422363,308.560089 660.914246,311.771942 660.314819,314.852783 
	C658.188965,325.779633 651.860168,334.075623 642.973999,340.918213 
	C646.245300,344.020966 649.206665,346.829712 652.142578,349.614380 
	C648.940308,353.546143 646.040100,357.106964 643.139954,360.667755 
	C643.525879,361.246948 643.911865,361.826111 644.297791,362.405304 
	C648.900391,361.452667 653.471497,360.250427 658.120300,359.664948 
	C660.099670,359.415619 662.241516,360.456421 664.887573,361.393311 
M638.050354,272.280975 
	C612.402954,257.837494 585.471313,275.320831 582.363647,294.836670 
	C591.201172,295.577942 600.106140,296.324890 608.977051,297.069000 
	C609.559998,284.041412 616.542908,275.968506 628.062561,275.773010 
	C638.283875,275.599548 646.459412,282.886261 647.239502,292.865143 
	C648.197388,305.118103 641.217224,312.349243 627.456116,314.211853 
	C628.805176,323.077484 630.156799,331.960419 631.547058,341.096771 
	C644.003235,336.618073 652.660889,327.403229 655.810364,313.618744 
	C659.565186,297.185059 653.202271,282.673065 638.050354,272.280975 
M580.546265,306.571350 
	C580.658325,307.395599 580.797241,308.217194 580.878601,309.044464 
	C582.913330,329.746033 600.075134,344.402252 620.912354,343.088867 
	C622.286377,343.002289 624.631531,342.043884 624.762451,341.213257 
	C625.492310,336.582336 625.678528,331.865753 626.051636,327.165955 
	C614.389526,326.544312 612.643555,324.915161 610.409546,313.638031 
	C600.914917,313.949799 597.822388,311.017914 596.418091,299.738892 
	C592.538635,300.094391 588.628235,300.516083 584.707581,300.791992 
	C581.587463,301.011566 580.280640,302.639038 580.546265,306.571350 
M634.016296,307.915985 
	C642.106995,303.284943 644.771729,295.916901 641.103027,288.321686 
	C637.926575,281.745880 629.805115,278.739655 622.898071,281.583099 
	C616.040161,284.406311 612.485229,292.169464 614.811584,299.242523 
	C617.315369,306.855194 624.734375,310.441284 634.016296,307.915985 
M602.365051,301.740662 
	C603.047913,303.878326 603.156189,307.208160 604.546387,307.878235 
	C606.708374,308.920258 609.742065,308.153656 612.406311,308.153656 
	C612.519897,307.525391 612.633484,306.897125 612.747070,306.268860 
	C609.564392,304.766846 606.381714,303.264862 602.365051,301.740662 
M619.229309,321.344543 
	C620.514221,321.500244 621.799194,321.655975 624.458191,321.978180 
	C621.733215,317.548004 619.773438,314.361908 617.302612,310.345032 
	C615.460571,315.072021 614.508057,318.414825 619.229309,321.344543 
z"/>
<path fill="#0C0C0C" opacity="1.000000" stroke="none" 
	d="
M688.834656,243.489990 
	C684.773438,264.291718 664.305847,273.441986 647.562744,265.201477 
	C634.765198,258.902802 628.694641,244.591187 632.884094,231.134232 
	C637.192810,217.294174 650.671997,208.882004 665.093018,211.033112 
	C678.174927,212.984421 688.784363,225.426514 688.979248,239.063004 
	C688.998291,240.394028 688.931458,241.726257 688.834656,243.489990 
M656.885925,239.636353 
	C655.244934,238.110626 653.603882,236.584885 651.897827,234.998657 
	C645.333435,245.108444 646.277222,242.889954 655.680908,251.180099 
	C659.667603,254.694748 662.156006,249.510712 665.561462,247.722702 
	C662.461243,244.833954 659.931458,242.476669 656.885925,239.636353 
M672.980530,236.512573 
	C671.355103,234.528870 669.902588,232.366409 668.071472,230.595291 
	C662.810303,225.506317 661.065674,225.692825 655.653687,231.653900 
	C659.984375,235.681122 664.316650,239.709885 669.076660,244.136353 
	C670.435242,241.555359 671.575012,239.390091 672.980530,236.512573 
M666.930237,261.880554 
	C669.910950,260.739807 672.891602,259.599091 676.659607,258.157013 
	C673.592590,255.276138 671.369751,253.188232 669.184570,251.135712 
	C666.347168,253.059311 663.892029,254.723740 661.143555,256.587036 
	C662.950134,258.293121 664.625916,259.875732 666.930237,261.880554 
M637.295593,233.346786 
	C639.191406,235.555527 641.087280,237.764282 643.140686,240.156601 
	C644.954712,236.930222 646.461731,234.250015 648.056335,231.413956 
	C645.813354,229.331909 643.671814,227.344009 640.955505,224.822556 
	C639.648315,227.796082 638.600708,230.179291 637.295593,233.346786 
M653.570557,226.454666 
	C655.409363,225.182510 657.248169,223.910339 659.116943,222.617447 
	C652.837463,215.604813 651.741211,215.535873 644.377014,222.201447 
	C647.421936,223.882553 650.198669,225.415619 653.570557,226.454666 
M675.333984,242.770752 
	C674.456177,244.316238 673.578369,245.861725 672.635254,247.522171 
	C674.969299,249.683868 677.094482,251.652130 679.287170,253.682953 
	C684.647888,245.702332 684.519775,244.938522 677.256470,239.613037 
	C676.740479,240.458801 676.233398,241.290024 675.333984,242.770752 
M683.927917,236.930054 
	C683.127991,233.741608 682.328125,230.553146 681.528259,227.364700 
	C678.949219,231.812881 677.765869,235.857590 683.927917,236.930054 
M659.828308,262.834137 
	C656.751160,257.898956 656.057190,257.742767 649.022278,261.294678 
	C653.070374,262.026489 656.066772,262.568176 659.828308,262.834137 
M672.039062,227.857773 
	C672.833008,228.381790 673.626953,228.905792 674.878723,229.731949 
	C675.194397,227.303543 675.448914,225.345230 675.793396,222.695068 
	C673.080322,223.361160 671.259094,223.808289 668.952515,224.374588 
	C670.056030,225.643723 670.787842,226.485306 672.039062,227.857773 
M662.822571,215.804504 
	C662.043457,215.864944 661.264343,215.925400 660.303955,215.999908 
	C662.930054,221.473602 666.720093,220.620010 671.981384,217.936005 
	C668.558838,217.102737 666.090576,216.501831 662.822571,215.804504 
M636.849609,242.166748 
	C637.619141,245.183212 638.388672,248.199661 639.484741,252.496063 
	C642.353088,244.715027 642.310242,244.577408 636.849609,242.166748 
M650.588440,253.185654 
	C649.202271,251.970398 647.816162,250.755157 645.555420,248.773148 
	C645.311096,251.917938 645.162170,253.834854 644.916321,256.998962 
	C647.671021,255.579071 649.334412,254.721680 650.588440,253.185654 
z"/>
<path fill="#0F0F0F" opacity="1.000000" stroke="none" 
	d="
M736.759033,272.106049 
	C745.997681,278.179169 749.730042,286.190369 747.923340,295.566132 
	C746.272034,304.135437 739.595886,310.028534 729.386658,312.036835 
	C723.689270,313.157593 718.026855,314.456970 712.326294,315.559998 
	C706.547546,316.678162 702.579651,313.565338 703.156677,307.749237 
	C703.926453,299.990387 704.778931,292.146881 706.681091,284.613770 
	C710.017578,271.399811 723.309570,266.003510 736.759033,272.106049 
M731.728333,306.525116 
	C732.193665,306.351379 732.663879,306.189423 733.123657,306.002045 
	C740.773071,302.884552 744.680786,295.949310 743.165955,288.185577 
	C741.656860,280.451477 733.954346,274.087372 726.112915,274.095673 
	C718.726624,274.103485 712.375977,279.515656 710.928894,287.378265 
	C709.788086,293.576355 708.980591,299.836151 708.041443,306.071014 
	C707.451111,309.990143 708.605896,311.700867 712.967896,310.601166 
	C718.911804,309.102692 724.966187,308.042206 731.728333,306.525116 
z"/>
<path fill="#050505" opacity="1.000000" stroke="none" 
	d="
M518.021545,195.827744 
	C515.084961,185.787354 518.738342,177.046738 527.146912,173.329895 
	C535.287598,169.731461 544.647034,172.606552 549.373474,180.157562 
	C554.058228,187.642029 552.398254,197.364120 545.334900,202.970840 
	C541.100403,206.332077 536.134766,207.897385 530.881165,206.520035 
	C528.119019,205.795868 526.526428,206.317413 524.905518,208.342438 
	C523.662659,209.895187 522.323914,211.401184 520.852539,212.734497 
	C518.202759,215.135513 515.168701,215.731567 512.362244,213.208221 
	C509.372437,210.520050 509.743347,207.378479 512.033264,204.329056 
	C514.061890,201.627609 516.097656,198.931580 518.021545,195.827744 
M535.257080,183.852692 
	C530.133606,184.574890 527.549683,187.615448 529.499084,191.180801 
	C530.379089,192.790253 532.785706,194.689621 534.304626,194.535461 
	C536.130615,194.350159 538.430786,192.456802 539.305847,190.696548 
	C540.822571,187.645355 538.857971,185.401779 535.257080,183.852692 
z"/>
<path fill="#F8F8F8" opacity="1.000000" stroke="none" 
	d="
M664.598572,361.152130 
	C662.241516,360.456421 660.099670,359.415619 658.120300,359.664948 
	C653.471497,360.250427 648.900391,361.452667 644.297791,362.405304 
	C643.911865,361.826111 643.525879,361.246948 643.139954,360.667755 
	C646.040100,357.106964 648.940308,353.546143 652.142578,349.614380 
	C649.206665,346.829712 646.245300,344.020966 642.973999,340.918213 
	C651.860168,334.075623 658.188965,325.779633 660.314819,314.852783 
	C660.914246,311.771942 661.422363,308.560089 661.207825,305.461273 
	C660.900391,301.022095 663.316223,298.696014 666.671570,296.910522 
	C670.098267,295.087036 672.736145,296.939850 675.147583,299.188660 
	C688.543701,311.681396 701.954895,324.158173 715.299805,336.705444 
	C719.395264,340.556122 719.450317,344.171692 715.599182,348.343079 
	C707.579163,357.030273 699.526184,365.687622 691.422974,374.297241 
	C686.962708,379.036224 683.906738,379.101624 679.122559,374.690887 
	C674.348633,370.289673 669.630310,365.828308 664.598572,361.152130 
M680.740601,343.201996 
	C681.779297,342.322205 682.818054,341.442413 684.082520,340.371429 
	C680.353943,336.854279 677.031799,333.720520 674.053406,330.911041 
	C668.875854,333.214294 671.928833,335.407227 673.618591,337.535187 
	C670.247925,340.808258 667.062256,343.901672 663.745178,347.122681 
	C662.718506,346.404205 661.574341,345.603485 660.328125,344.731323 
	C659.282837,345.948090 658.455688,346.910950 657.427673,348.107605 
	C661.000366,351.448059 664.311829,354.544281 667.769897,357.777557 
	C669.060669,356.383087 669.920349,355.454285 670.830566,354.470886 
	C669.747925,353.199463 668.808777,352.096558 667.489441,350.547241 
	C670.968079,347.265564 674.301270,344.121063 677.665833,340.946960 
	C678.490662,341.658264 679.244202,342.308105 680.740601,343.201996 
M683.768311,320.165710 
	C679.547180,323.774567 678.706726,327.898804 681.700317,331.140930 
	C684.241821,333.893463 687.370178,334.453705 690.658997,332.604797 
	C694.048645,330.699280 695.058472,327.396454 693.720825,324.087830 
	C692.134399,320.163788 688.882080,318.378632 683.768311,320.165710 
M680.524353,365.247070 
	C678.207336,366.977325 678.957092,368.417999 680.851562,369.921448 
	C683.452759,371.985809 686.061646,373.076813 688.759705,370.237549 
	C692.981201,365.795135 697.124878,361.278809 701.502930,356.577515 
	C700.189148,355.453644 699.135925,354.552704 697.930542,353.521545 
	C693.622986,358.112640 689.561340,362.441650 685.656982,366.603058 
	C683.928894,365.917572 682.503540,365.352203 680.524353,365.247070 
z"/>
<path fill="#F8F8F8" opacity="1.000000" stroke="none" 
	d="
M638.368042,272.471527 
	C653.202271,282.673065 659.565186,297.185059 655.810364,313.618744 
	C652.660889,327.403229 644.003235,336.618073 631.547058,341.096771 
	C630.156799,331.960419 628.805176,323.077484 627.456116,314.211853 
	C641.217224,312.349243 648.197388,305.118103 647.239502,292.865143 
	C646.459412,282.886261 638.283875,275.599548 628.062561,275.773010 
	C616.542908,275.968506 609.559998,284.041412 608.977051,297.069000 
	C600.106140,296.324890 591.201172,295.577942 582.363647,294.836670 
	C585.471313,275.320831 612.402954,257.837494 638.368042,272.471527 
z"/>
<path fill="#F7F7F7" opacity="1.000000" stroke="none" 
	d="
M580.520874,306.116943 
	C580.280640,302.639038 581.587463,301.011566 584.707581,300.791992 
	C588.628235,300.516083 592.538635,300.094391 596.418091,299.738892 
	C597.822388,311.017914 600.914917,313.949799 610.409546,313.638031 
	C612.643555,324.915161 614.389526,326.544312 626.051636,327.165955 
	C625.678528,331.865753 625.492310,336.582336 624.762451,341.213257 
	C624.631531,342.043884 622.286377,343.002289 620.912354,343.088867 
	C600.075134,344.402252 582.913330,329.746033 580.878601,309.044464 
	C580.797241,308.217194 580.658325,307.395599 580.520874,306.116943 
z"/>
<path fill="#FBFBFB" opacity="1.000000" stroke="none" 
	d="
M633.638000,308.037842 
	C624.734375,310.441284 617.315369,306.855194 614.811584,299.242523 
	C612.485229,292.169464 616.040161,284.406311 622.898071,281.583099 
	C629.805115,278.739655 637.926575,281.745880 641.103027,288.321686 
	C644.771729,295.916901 642.106995,303.284943 633.638000,308.037842 
z"/>
<path fill="#E5E5E5" opacity="1.000000" stroke="none" 
	d="
M602.782043,301.751770 
	C606.381714,303.264862 609.564392,304.766846 612.747070,306.268860 
	C612.633484,306.897125 612.519897,307.525391 612.406311,308.153656 
	C609.742065,308.153656 606.708374,308.920258 604.546387,307.878235 
	C603.156189,307.208160 603.047913,303.878326 602.782043,301.751770 
z"/>
<path fill="#F2F2F2" opacity="1.000000" stroke="none" 
	d="
M618.854614,321.186462 
	C614.508057,318.414825 615.460571,315.072021 617.302612,310.345032 
	C619.773438,314.361908 621.733215,317.548004 624.458191,321.978180 
	C621.799194,321.655975 620.514221,321.500244 618.854614,321.186462 
z"/>
<path fill="#F2F2F2" opacity="1.000000" stroke="none" 
	d="
M657.143799,239.877869 
	C659.931458,242.476669 662.461243,244.833954 665.561462,247.722702 
	C662.156006,249.510712 659.667603,254.694748 655.680908,251.180099 
	C646.277222,242.889954 645.333435,245.108444 651.897827,234.998657 
	C653.603882,236.584885 655.244934,238.110626 657.143799,239.877869 
z"/>
<path fill="#F7F7F7" opacity="1.000000" stroke="none" 
	d="
M672.847656,236.868713 
	C671.575012,239.390091 670.435242,241.555359 669.076660,244.136353 
	C664.316650,239.709885 659.984375,235.681122 655.653687,231.653900 
	C661.065674,225.692825 662.810303,225.506317 668.071472,230.595291 
	C669.902588,232.366409 671.355103,234.528870 672.847656,236.868713 
z"/>
<path fill="#E5E5E5" opacity="1.000000" stroke="none" 
	d="
M666.615967,261.669434 
	C664.625916,259.875732 662.950134,258.293121 661.143555,256.587036 
	C663.892029,254.723740 666.347168,253.059311 669.184570,251.135712 
	C671.369751,253.188232 673.592590,255.276138 676.659607,258.157013 
	C672.891602,259.599091 669.910950,260.739807 666.615967,261.669434 
z"/>
<path fill="#F2F2F2" opacity="1.000000" stroke="none" 
	d="
M637.424316,232.954651 
	C638.600708,230.179291 639.648315,227.796082 640.955505,224.822556 
	C643.671814,227.344009 645.813354,229.331909 648.056335,231.413956 
	C646.461731,234.250015 644.954712,236.930222 643.140686,240.156601 
	C641.087280,237.764282 639.191406,235.555527 637.424316,232.954651 
z"/>
<path fill="#F2F2F2" opacity="1.000000" stroke="none" 
	d="
M653.272949,226.701660 
	C650.198669,225.415619 647.421936,223.882553 644.377014,222.201447 
	C651.741211,215.535873 652.837463,215.604813 659.116943,222.617447 
	C657.248169,223.910339 655.409363,225.182510 653.272949,226.701660 
z"/>
<path fill="#F2F2F2" opacity="1.000000" stroke="none" 
	d="
M675.530151,242.445984 
	C676.233398,241.290024 676.740479,240.458801 677.256470,239.613037 
	C684.519775,244.938522 684.647888,245.702332 679.287170,253.682953 
	C677.094482,251.652130 674.969299,249.683868 672.635254,247.522171 
	C673.578369,245.861725 674.456177,244.316238 675.530151,242.445984 
z"/>
<path fill="#E5E5E5" opacity="1.000000" stroke="none" 
	d="
M683.802490,237.285034 
	C677.765869,235.857590 678.949219,231.812881 681.528259,227.364700 
	C682.328125,230.553146 683.127991,233.741608 683.802490,237.285034 
z"/>
<path fill="#E5E5E5" opacity="1.000000" stroke="none" 
	d="
M659.445679,262.971985 
	C656.066772,262.568176 653.070374,262.026489 649.022278,261.294678 
	C656.057190,257.742767 656.751160,257.898956 659.445679,262.971985 
z"/>
<path fill="#E5E5E5" opacity="1.000000" stroke="none" 
	d="
M671.779358,227.592331 
	C670.787842,226.485306 670.056030,225.643723 668.952515,224.374588 
	C671.259094,223.808289 673.080322,223.361160 675.793396,222.695068 
	C675.448914,225.345230 675.194397,227.303543 674.878723,229.731949 
	C673.626953,228.905792 672.833008,228.381790 671.779358,227.592331 
z"/>
<path fill="#E5E5E5" opacity="1.000000" stroke="none" 
	d="
M663.222473,215.852707 
	C666.090576,216.501831 668.558838,217.102737 671.981384,217.936005 
	C666.720093,220.620010 662.930054,221.473602 660.303955,215.999908 
	C661.264343,215.925400 662.043457,215.864944 663.222473,215.852707 
z"/>
<path fill="#E5E5E5" opacity="1.000000" stroke="none" 
	d="
M636.980530,241.814148 
	C642.310242,244.577408 642.353088,244.715027 639.484741,252.496063 
	C638.388672,248.199661 637.619141,245.183212 636.980530,241.814148 
z"/>
<path fill="#E5E5E5" opacity="1.000000" stroke="none" 
	d="
M650.793152,253.524963 
	C649.334412,254.721680 647.671021,255.579071 644.916321,256.998962 
	C645.162170,253.834854 645.311096,251.917938 645.555420,248.773148 
	C647.816162,250.755157 649.202271,251.970398 650.793152,253.524963 
z"/>
<path fill="#F2F2F2" opacity="1.000000" stroke="none" 
	d="
M731.350769,306.659485 
	C724.966187,308.042206 718.911804,309.102692 712.967896,310.601166 
	C708.605896,311.700867 707.451111,309.990143 708.041443,306.071014 
	C708.980591,299.836151 709.788086,293.576355 710.928894,287.378265 
	C712.375977,279.515656 718.726624,274.103485 726.112915,274.095673 
	C733.954346,274.087372 741.656860,280.451477 743.165955,288.185577 
	C744.680786,295.949310 740.773071,302.884552 733.123657,306.002045 
	C732.663879,306.189423 732.193665,306.351379 731.350769,306.659485 
M725.660828,303.159088 
	C733.274841,302.789459 738.257507,298.129944 738.277771,291.360291 
	C738.296814,284.997589 733.721985,279.981262 727.313293,279.337646 
	C721.365112,278.740326 715.667542,283.376862 714.661072,289.633636 
	C713.602295,296.215637 717.550049,301.452881 725.660828,303.159088 
z"/>
<path fill="#F2F2F2" opacity="1.000000" stroke="none" 
	d="
M535.654236,183.912628 
	C538.857971,185.401779 540.822571,187.645355 539.305847,190.696548 
	C538.430786,192.456802 536.130615,194.350159 534.304626,194.535461 
	C532.785706,194.689621 530.379089,192.790253 529.499084,191.180801 
	C527.549683,187.615448 530.133606,184.574890 535.654236,183.912628 
z"/>
<path fill="#0E0E0E" opacity="1.000000" stroke="none" 
	d="
M680.369141,343.079956 
	C679.244202,342.308105 678.490662,341.658264 677.665833,340.946960 
	C674.301270,344.121063 670.968079,347.265564 667.489441,350.547241 
	C668.808777,352.096558 669.747925,353.199463 670.830566,354.470886 
	C669.920349,355.454285 669.060669,356.383087 667.769897,357.777557 
	C664.311829,354.544281 661.000366,351.448059 657.427673,348.107605 
	C658.455688,346.910950 659.282837,345.948090 660.328125,344.731323 
	C661.574341,345.603485 662.718506,346.404205 663.745178,347.122681 
	C667.062256,343.901672 670.247925,340.808258 673.618591,337.535187 
	C671.928833,335.407227 668.875854,333.214294 674.053406,330.911041 
	C677.031799,333.720520 680.353943,336.854279 684.082520,340.371429 
	C682.818054,341.442413 681.779297,342.322205 680.369141,343.079956 
z"/>
<path fill="#0F0F0F" opacity="1.000000" stroke="none" 
	d="
M684.123352,320.022766 
	C688.882080,318.378632 692.134399,320.163788 693.720825,324.087830 
	C695.058472,327.396454 694.048645,330.699280 690.658997,332.604797 
	C687.370178,334.453705 684.241821,333.893463 681.700317,331.140930 
	C678.706726,327.898804 679.547180,323.774567 684.123352,320.022766 
z"/>
<path fill="#0F0F0F" opacity="1.000000" stroke="none" 
	d="
M680.801270,365.016968 
	C682.503540,365.352203 683.928894,365.917572 685.656982,366.603058 
	C689.561340,362.441650 693.622986,358.112640 697.930542,353.521545 
	C699.135925,354.552704 700.189148,355.453644 701.502930,356.577515 
	C697.124878,361.278809 692.981201,365.795135 688.759705,370.237549 
	C686.061646,373.076813 683.452759,371.985809 680.851562,369.921448 
	C678.957092,368.417999 678.207336,366.977325 680.801270,365.016968 
z"/>
<path fill="#0F0F0F" opacity="1.000000" stroke="none" 
	d="
M725.243103,303.138550 
	C717.550049,301.452881 713.602295,296.215637 714.661072,289.633636 
	C715.667542,283.376862 721.365112,278.740326 727.313293,279.337646 
	C733.721985,279.981262 738.296814,284.997589 738.277771,291.360291 
	C738.257507,298.129944 733.274841,302.789459 725.243103,303.138550 
M720.202515,287.884003 
	C718.457703,292.668762 719.570496,296.352173 723.412598,297.874298 
	C727.146851,299.353668 730.432739,298.403168 732.462036,294.963287 
	C734.473633,291.553284 733.958069,288.138580 730.664246,285.691650 
	C726.921753,282.911377 723.531067,283.773865 720.202515,287.884003 
z"/>
<path fill="#F2F2F2" opacity="1.000000" stroke="none" 
	d="
M720.437500,287.582245 
	C723.531067,283.773865 726.921753,282.911377 730.664246,285.691650 
	C733.958069,288.138580 734.473633,291.553284 732.462036,294.963287 
	C730.432739,298.403168 727.146851,299.353668 723.412598,297.874298 
	C719.570496,296.352173 718.457703,292.668762 720.437500,287.582245 
z"/>
</svg>